<svg width="90" height="59" viewBox="0 0 90 59" fill="none" xmlns="http://www.w3.org/2000/svg">
<path d="M16.2726 44.2026C16.2787 44.2145 16.2878 44.2323 16.2999 44.256C16.3002 44.2858 16.3034 44.3067 16.3095 44.3185L16.3294 44.533L16.4128 44.8274L16.3029 45.4904L16.3151 45.8212L16.0233 46.1729L15.9807 46.3969L15.5552 46.7946L15.326 47.1367L15.1658 47.2187L15.141 47.4336L14.6782 47.6707C14.6269 47.9216 14.453 48.1231 14.1563 48.275C14.0845 48.2519 14.0427 48.2433 14.0308 48.2494C14.0071 48.2616 13.9512 48.3426 13.8632 48.4925L13.5423 48.6119L13.4451 48.7291L13.0886 48.8667L13.205 48.8746C12.9566 49.0916 12.7672 49.2336 12.6366 49.3005C12.5773 49.3308 12.5327 49.3462 12.5029 49.3465C12.2135 49.6295 11.9619 49.8258 11.7483 49.9352C11.7364 49.9413 11.7037 49.9505 11.6502 49.963C11.6146 49.9812 11.5849 49.9964 11.5612 50.0085L11.3306 50.2165L11.0536 50.246L10.9564 50.3632L10.8435 50.7132L10.4866 50.8061C10.4449 50.8124 10.3675 50.8221 10.2543 50.8351L10.2278 50.8712L10.0416 51.034L10.1883 51.4082L10.2273 51.7478L10.0037 52.6712L9.66289 52.5761L9.28907 52.7676L9.05898 52.099L8.94958 51.8853L8.77939 51.8601C8.74408 51.9082 8.68532 51.9982 8.60311 52.1302L8.12247 52.3763L7.66573 52.3181L7.31364 51.9817L7.44434 51.6226C7.54884 51.3294 7.75783 51.0501 8.07131 50.7847L8.03527 50.7582C7.97507 50.6991 7.93282 50.6459 7.9085 50.5984C7.86596 50.5153 7.84715 50.4201 7.85207 50.3127L7.3793 49.5212L7.3589 49.262L7.16745 48.8882L7.15617 48.6468L6.76022 48.4002L6.75417 47.7741L6.11816 46.7516L5.94407 46.324L5.80732 46.0569L5.44654 45.7474L5.16392 45.1955L4.92948 45.001L4.79532 45.0023L4.49486 45.3809L3.84577 45.7807C3.63215 45.8901 3.37455 45.7674 3.07296 45.4125L2.66573 44.9245C2.83479 44.5233 3.04392 44.2589 3.29314 44.1313L3.32874 44.1131C3.62428 43.8419 3.90852 43.6364 4.18147 43.4966C4.21708 43.4784 4.2796 43.4688 4.36904 43.4679C4.4524 43.4552 4.52374 43.4336 4.58308 43.4033C4.57121 43.4093 4.70132 43.2978 4.97341 43.0685L5.1449 43.2279L5.36677 43.0468L5.55433 43.0182L5.7584 42.8463L6.5347 42.6509L6.83905 42.6748L7.3097 42.3214L7.6605 42.5238L7.77642 42.4869L8.17933 42.5277L8.36646 42.4543L8.62566 42.4339L8.69686 42.3975C8.88674 42.3002 9.08024 42.2685 9.27735 42.3024C9.67013 42.2211 10.0162 42.2386 10.3154 42.355C10.4225 42.3301 10.5208 42.3172 10.6102 42.3164C10.8253 42.356 11.0189 42.3392 11.1912 42.266L11.8719 42.3668L12.5622 42.53L12.5362 42.6108L12.9274 42.3655L13.1692 42.399L13.3594 42.6386C13.8135 42.7356 14.2921 42.895 14.7951 43.1167C14.8252 43.1462 14.8584 43.1817 14.8946 43.2231L15.2614 43.2374L15.4894 43.6824C15.4894 43.6824 15.5701 43.7085 15.7316 43.7606C15.7802 43.8555 15.8166 43.9118 15.8406 43.9295L15.9122 43.9378C16.1038 44.0194 16.224 44.1077 16.2726 44.2026ZM14.9479 45.0383L14.7213 44.7275L13.8139 44.3158L13.6359 44.407L13.1939 44.0266C12.872 44.0417 12.6454 44.0379 12.514 44.0153L12.3512 43.8291L12.2257 43.8034L11.6096 43.9167L11.3035 43.714L9.68411 43.667C9.67224 43.6731 9.64257 43.6883 9.5951 43.7126C9.56557 43.7427 9.53894 43.7638 9.51521 43.776C9.3372 43.8671 9.14964 43.8958 8.95252 43.8619L8.82619 43.7469L8.48796 43.9201L8.36249 43.8945L8.10372 43.9596C8.0742 43.9897 8.02977 44.0199 7.97043 44.0503C7.86362 44.105 7.7862 44.1147 7.73815 44.0794L7.693 44.0351L7.40645 44.0021L7.07691 44.1484C6.89746 44.0905 6.74246 44.095 6.61192 44.1618L6.63317 44.5105L6.54417 44.5561L6.95878 44.883L6.92491 45.0801C7.13533 45.257 7.25573 45.3751 7.28612 45.4344L7.33171 45.5234C7.37425 45.6065 7.39885 45.6838 7.40551 45.7553L7.80275 46.136L7.66989 46.2715L7.74239 46.3692L8.04325 46.9566C8.0554 46.9804 8.09853 47.1231 8.17261 47.3847L8.35192 47.4277L8.42961 48.062L8.68358 48.4263L8.69659 48.8466L8.98444 49.0138L9.13117 49.388L9.32958 49.556L9.35041 49.86L9.40467 49.922L9.57357 49.8131L10.1332 49.4141C10.2513 49.2937 10.3934 49.191 10.5596 49.1059C10.7376 49.0147 10.904 48.9594 11.0589 48.94C11.2962 48.8185 11.5207 48.5987 11.7323 48.2806C12.2837 47.9532 12.4942 47.823 12.3636 47.8898C12.4111 47.8655 12.4675 47.8441 12.5329 47.8256C12.5984 47.8071 12.6429 47.7917 12.6667 47.7796C12.7972 47.7127 12.871 47.6375 12.8881 47.5538L13.1365 47.3367C13.2537 47.1269 13.3894 46.9825 13.5437 46.9035C13.6031 46.8731 13.6834 46.8544 13.7847 46.8475C13.8614 46.7632 13.9235 46.709 13.9709 46.6847L14.03 46.3174L14.3513 46.2427L14.4486 46.1255L14.6066 45.8198L14.7134 45.7651L15.003 45.1899L14.9479 45.0383ZM22.7237 37.0338L22.8821 37.6942L22.2691 38.1205L22.0315 38.5343L21.7454 38.546L21.5691 38.816L21.3568 39.0596L21.2426 39.2754L21.2791 39.3466L20.9964 39.7161L20.9113 40.1641L20.7867 40.2279C20.7002 40.5269 20.6275 40.7214 20.5687 40.8114L20.5292 41.3485L20.4584 41.4297C20.4715 41.5429 20.5029 41.7065 20.5526 41.9207L20.349 42.1374L20.3516 42.4057L20.3003 42.6566L20.4015 42.9419L20.2864 43.0682L20.4232 43.3352L20.3971 43.416C20.4631 43.4571 20.5381 43.5011 20.622 43.548L20.4097 43.7916L20.4926 44.0412L20.4696 44.435L20.6949 44.6117L20.6276 45.0507C20.7121 45.1572 20.7665 45.2342 20.7908 45.2816C20.7969 45.2935 20.8091 45.3172 20.8273 45.3528C20.8337 45.3945 20.8429 45.4272 20.8551 45.451L20.9728 45.5929L21.4395 45.7584L21.4177 46.2863L21.2862 46.5559L20.9154 47.0604L20.12 47.1307L19.9103 46.7213L19.757 46.5976L19.6737 46.3032C19.5527 46.1255 19.4679 45.9891 19.4193 45.8942C19.4011 45.8586 19.3827 45.8081 19.3642 45.7427C19.3338 45.6833 19.3125 45.6418 19.3003 45.6181L19.1914 45.4492C19.0658 45.4086 18.9756 45.335 18.9209 45.2282C18.8723 45.1332 18.8591 45.0051 18.8814 44.8439C18.851 44.7846 18.748 44.6126 18.5723 44.3281L18.5983 44.2474L18.4264 44.0433L18.3526 43.8114L18.2532 43.7051L18.0969 43.2683L17.8989 43.145L17.8699 42.9127L17.6801 42.7177C17.6555 42.6405 17.6129 42.5425 17.5521 42.4238C17.4609 42.2458 17.3764 42.1393 17.2985 42.1043L17.315 41.961L17.0797 41.677L16.801 41.5277L16.7441 41.1973L16.6182 41.1269L16.3282 40.7361L16.2553 40.5937C16.1595 40.5529 16.0842 40.4791 16.0295 40.3723C15.908 40.135 16.0657 39.7995 16.5028 39.3659L16.9934 39.227L17.2557 39.5197L17.5522 39.6599L17.7449 40.1679C17.9021 40.387 18.0774 40.6268 18.2707 40.8873L18.47 41.1448C18.494 41.1624 18.5393 41.2216 18.6058 41.3224C18.6423 41.3936 18.6522 41.4859 18.6354 41.5994L18.8711 41.928L19.0361 42.3379L19.056 42.5524L19.1459 42.5962L19.2727 42.756C19.3013 42.6365 19.2973 42.5262 19.2605 42.4252L19.195 42.1217C19.1941 42.0323 19.2202 41.9515 19.2731 41.8794L19.2076 41.5759L19.3839 41.3059L19.3101 41.0741L19.3965 40.7602L19.4022 40.4202C19.4713 40.175 19.565 39.9923 19.6831 39.8719L19.6913 39.8002L19.7239 39.469L19.8837 39.3422L19.9097 39.2614L19.9262 39.1182L20.0674 38.9111L20.1103 38.7318L20.2263 38.6949L20.3322 38.5507L20.3487 38.4074L20.5076 38.1912L20.71 37.8404L21.0643 37.4792C21.2183 37.3704 21.3012 37.3129 21.3131 37.3069C21.3191 37.3187 21.3222 37.3247 21.3222 37.3247C21.3103 37.3307 21.3074 37.3397 21.3135 37.3516L21.3313 37.3425C21.3788 37.3182 21.4378 37.258 21.5084 37.1619C21.5435 37.084 21.6144 37.0177 21.7212 36.963C21.7687 36.9387 21.8578 36.908 21.9886 36.871C22.3033 36.7248 22.5483 36.7791 22.7237 37.0338ZM29.6969 32.7211L29.6374 33.0436L29.9986 33.3979L29.9039 33.7835L30.0064 34.2029L29.9985 34.3192L30.0797 34.39C30.1648 34.5562 30.1871 34.702 30.1466 34.8277L30.1383 34.8993L30.1748 34.9705C30.2529 35.0353 30.3102 35.1034 30.3467 35.1746C30.3771 35.2339 30.3924 35.2785 30.3927 35.3083L30.447 35.3704L30.4761 35.6027L30.6389 35.7889L30.5694 36.0043L30.7504 36.2261L30.9211 36.296L30.8338 36.5205L30.9797 36.8053L31.0009 37.154L31.2358 37.3932L31.2019 37.5903L31.4437 37.6237L31.4042 38.1608L31.4138 38.2233L31.61 38.1678L31.6951 38.641L31.7315 38.7122C31.7741 38.7953 31.8016 38.8636 31.814 38.9171L31.8592 38.9614L32.1622 38.8512L32.576 39.0887L32.5881 39.4195L32.7748 39.3014C32.919 39.4074 33.0243 39.5107 33.0909 39.6114L32.9606 40.0152C32.9201 40.1408 32.844 40.2847 32.7322 40.4468L32.5117 40.762L32.3771 40.7185L32.2538 40.9165L31.3737 40.5583L31.2187 40.2557C31.026 40.0548 30.8779 39.8535 30.7746 39.6517L30.7199 39.5449L30.0752 38.5493L29.8347 37.7287L29.5091 37.3562L29.4618 38.0096L29.5386 38.5545L29.4326 38.6987L29.384 39.2179L29.1486 39.8553L29.1334 40.1327L28.915 40.6715L28.9445 40.9485L28.5572 41.5963L28.2984 42.5827L27.9967 42.8271L27.8564 43.1236C27.5537 43.2637 27.2704 43.2664 27.0068 43.1318C26.339 43.1443 25.8687 42.9133 25.5957 42.4389L25.6574 42.3399L25.5849 42.2422L25.4577 42.0377L25.2324 41.861L25.2115 41.557L25.0557 41.165L24.8794 40.5137C24.8734 40.5019 24.8612 40.4781 24.843 40.4425C24.819 40.4249 24.8009 40.4042 24.7887 40.3804C24.7644 40.333 24.7459 40.2675 24.7331 40.1842C24.7091 40.1665 24.6789 40.1221 24.6424 40.0509C24.5999 39.9678 24.5656 39.8131 24.5395 39.5868L24.6368 39.4695C24.5352 39.4467 24.4662 39.3996 24.4297 39.3284C24.4054 39.281 24.3931 39.2423 24.3928 39.2125C24.3627 39.183 24.3355 39.1445 24.3112 39.097C24.2382 38.9546 24.2547 38.8113 24.3607 38.6672C24.3355 38.5303 24.34 38.3782 24.3742 38.2109L24.2122 38.1141L24.2891 37.7376L24.2526 37.6664C24.1371 37.4409 24.1079 37.1938 24.165 36.9249L23.983 36.6136L24.0178 36.5059C24.0117 36.494 24.0026 36.4762 23.9904 36.4525C23.9664 36.4348 23.9514 36.4201 23.9453 36.4082C23.9088 36.337 23.9022 36.2655 23.9253 36.1937L23.8706 36.0869C23.8573 35.9439 23.8908 35.7021 23.9709 35.3614C24.0511 35.0207 24.0931 34.7371 24.0969 34.5105L24.2315 34.5539L24.3817 34.3646L24.4525 34.2834L24.9032 33.7155L26.3103 33.0847L26.3742 33.2094L26.847 33.0796C27.1199 32.9398 27.3435 32.9376 27.5178 33.0731C27.4995 33.0375 27.4842 32.9929 27.4717 32.9393C27.4535 32.9037 27.4413 32.88 27.4353 32.8681L27.9823 33.0149L28.357 32.9129L28.9158 32.4245L29.3751 32.751L29.6969 32.7211ZM28.4798 34.5128L28.3448 34.4247L28.1841 34.462L27.4044 34.2996L27.021 34.4285L26.7362 34.5744L26.6824 34.557L26.5673 34.6834L26.3615 34.6764L25.8987 34.9134L25.9885 34.9573L25.652 35.3094L25.6264 35.4349L25.5821 35.48C25.4597 35.7674 25.3873 35.9917 25.365 36.153L25.4592 36.644L25.4701 36.8407L25.7757 36.9987L25.5916 37.3851L25.6637 37.4381C25.6486 37.7305 25.6958 37.9834 25.8052 38.197L25.7539 38.448L25.918 38.7684L25.8577 39.0016L25.9041 39.18L25.869 39.243L25.9966 39.4922L25.9888 39.6085C26.0617 39.7509 26.1076 39.8698 26.1264 39.965L26.2076 40.0358L26.2206 40.456L26.3465 40.5264L26.3131 40.7682L26.6109 41.0426L26.5427 41.3921L26.7515 41.7121L26.7789 41.7655L26.8683 41.7646L26.9482 41.7013C26.9771 41.6115 27.0091 41.5277 27.0442 41.4499L26.9356 41.3257L27.1666 41.1625L27.1562 41.0105L27.7689 39.6182L27.8574 39.5279L27.8271 39.1614C27.8861 39.1012 27.9627 39.0021 28.0567 38.864L28.0177 38.5245L28.1601 38.4516L27.9517 38.1763L28.1827 38.0131C28.1821 37.9534 28.1873 37.8759 28.1983 37.7803C28.2212 37.6788 28.2471 37.5831 28.2761 37.4934L28.564 35.8179L28.5696 35.478L28.5154 35.4159L28.5397 35.1563L28.475 34.9422L28.5623 34.7177L28.4798 34.5128ZM42.9154 32.2655L43.1103 32.997L43.2553 33.1924L43.247 33.2641C43.3492 33.3466 43.4276 33.4412 43.4823 33.548C43.5188 33.6192 43.5375 33.6995 43.5383 33.789L43.5566 33.8246C43.6295 33.967 43.8739 34.5759 44.2898 35.6512L44.4274 36.0076L44.4639 36.0788L44.4647 36.1683L44.4834 36.2486L44.5559 36.3463L44.5299 36.427L44.5312 36.5612L44.4599 36.5977L44.5233 36.6775L44.5424 36.8026C44.585 36.8857 44.5978 36.9839 44.5811 37.0974L44.6379 37.4278C44.6692 37.5766 44.6706 37.7256 44.6422 37.875C44.6382 38.0718 44.5962 38.3555 44.5163 38.7259L44.3322 39.1123L44.1398 39.5704L43.9366 39.8317L43.8051 40.1014L43.6809 40.2099C43.5104 40.462 43.2829 40.6759 42.9984 40.8516L42.8824 40.8885L42.7587 41.0417L42.7769 41.0773C42.5995 41.2281 42.4396 41.34 42.2972 41.4129L41.6029 41.7685L41.1301 41.8983L40.7927 42.1609L40.5327 42.0919L39.9713 42.312L39.4512 42.1739L39.1112 42.1682C38.5453 42.2333 38.1113 42.0586 37.8092 41.6441L37.8083 41.5547L37.609 41.2972C37.636 40.9988 37.7057 40.8133 37.8183 40.7406C37.8829 40.6327 37.9626 40.5544 38.0575 40.5058C38.0575 40.5058 38.1735 40.4689 38.4053 40.3951C38.649 40.3152 38.8926 40.2204 39.136 40.1107L39.2372 40.396L39.5237 40.429L39.6331 40.6426L39.5819 40.8935L40.5284 40.7234L40.8922 40.4247L40.956 40.5493L41.0624 40.4499L41.098 40.4316C41.1099 40.4256 41.1931 40.3979 41.3477 40.3487L41.4019 40.4108L41.5344 40.2306C41.6403 40.0865 41.9069 39.905 42.3341 39.6862C42.381 39.6023 42.4161 39.5244 42.4392 39.4527C42.4511 39.4466 42.4838 39.4373 42.5373 39.4249C42.5848 39.4006 42.6204 39.3823 42.6441 39.3702C42.7153 39.3337 42.7501 39.226 42.7484 39.0472C42.7785 39.0767 42.8113 39.0823 42.8469 39.0641C42.8706 39.0519 42.8942 39.0249 42.9177 38.9829C42.9411 38.9409 42.9588 38.9169 42.9707 38.9108L43.0063 38.8926L43.3206 38.1024L43.378 37.5562L43.2772 37.3157L43.3454 36.9662L43.2447 36.7257L43.2421 36.4574L43.085 35.9311L42.9995 35.4132C42.9511 35.3481 42.8905 35.2443 42.8176 35.1019C42.6838 34.8408 42.5857 34.5615 42.5232 34.2639L42.3061 34.0156L41.8594 33.1433L41.562 32.9136L41.3068 32.4152L40.9729 32.1143L40.699 31.5355L40.6356 31.4556L40.5292 31.5551L40.5591 31.8768L40.4106 32.245L40.3546 32.9253L40.0559 33.4828L39.8218 34.2543C39.689 34.6968 39.4904 35.1281 39.2261 35.5481L39.1575 35.8528L38.9725 36.1498L38.7871 36.402L38.6742 36.752L38.4623 37.0403C38.416 37.1838 38.313 37.319 38.1532 37.4458C37.9833 37.7575 37.7322 37.9984 37.3999 38.1686L37.2041 38.2689C37.1508 38.3112 37.0708 38.3596 36.964 38.4143C36.869 38.463 36.7948 38.4935 36.7412 38.5059L36.4117 38.6522L35.7209 38.4442L35.1548 38.1724L34.8209 37.8715L34.3317 37.2233L34.1385 36.6706L34.0065 35.9742L33.8706 35.7966L33.7482 35.1627L33.7443 34.7602C33.7128 34.5817 33.6423 34.3856 33.5329 34.1719L33.5508 33.2415C33.5377 33.1283 33.5751 32.9819 33.6628 32.8021L33.6858 32.4084L33.7809 32.0675C33.7494 31.8889 33.7744 31.7038 33.8561 31.5122C33.9267 31.4161 33.9464 31.2937 33.9151 31.1449C33.8957 30.9901 34.0604 30.7559 34.4092 30.4425L34.3293 30.5059L34.4001 30.4247C34.4053 30.3471 34.4276 30.1859 34.467 29.941L34.6988 29.8672L34.8043 29.6784C34.9091 29.415 35.0683 29.2286 35.282 29.1192L35.4066 29.0553L35.7782 28.6403L36.0908 28.5926L36.4113 28.4285L36.6618 28.435C36.7865 28.3861 36.9088 28.3908 37.0286 28.4493L37.4055 28.5709L37.4949 28.57L37.567 28.623L37.8548 28.7902L37.9182 28.8701L38.0107 29.1822L38.1466 29.3598L38.0975 29.8344L37.6177 30.17L37.1319 29.8795L36.8371 29.9181L36.6487 29.8573L36.4707 29.9485C36.4235 30.0026 36.3293 30.1258 36.188 30.3179L36.2431 30.4695L35.7981 30.6974C35.7706 30.9362 35.6887 31.098 35.5524 31.1828C35.5055 31.2667 35.4555 31.3447 35.4026 31.4168L35.4334 31.8279L35.3179 31.9096L35.3821 32.0789L35.1329 32.2065L35.0929 32.6989L34.9609 32.9238L35.0174 33.2094L34.9418 33.72L35.0885 34.0943L34.9843 34.4173L35.1805 35.283L35.1111 35.4984L35.2291 35.6851L35.362 36.4709L35.5248 36.6572L35.6164 36.8799C35.7602 36.9561 35.8656 37.0594 35.9324 37.1899L36.0753 37.1617L36.1834 37.2412C36.3851 37.1379 36.5278 37.0947 36.6115 37.1118C36.6757 36.974 36.9209 36.7361 37.347 36.3981C37.3331 36.1955 37.3732 36.0251 37.4673 35.8871C37.5553 35.7371 37.7463 35.452 38.0404 35.0318L38.1029 35.0222C38.0543 34.9273 38.0443 34.82 38.073 34.7005C38.2145 34.5381 38.297 34.436 38.3205 34.394C38.385 34.286 38.3989 34.1815 38.3622 34.0805L38.6105 33.8635L38.7065 33.6121L38.8415 32.7789L39.0026 32.7863C38.9963 32.7446 39.0447 32.5176 39.1481 32.1051L39.3201 31.3879L39.2371 31.1382C39.3127 30.9347 39.2843 30.4699 39.1521 29.7437L38.8716 29.4154L38.6016 29.2391L38.5717 28.9174L38.329 28.7945L38.1657 28.5636L38.0212 28.4129L38.0351 28.0013C38.1763 27.8091 38.2885 27.6918 38.3716 27.6492C38.4784 27.5945 38.6481 27.575 38.8808 27.5906L39.124 27.7582L39.4465 27.8177L39.6827 28.1911C39.773 28.2797 39.8966 28.4186 40.0535 28.6079C40.1675 28.6843 40.261 28.7938 40.3339 28.9362L40.3978 29.0608L40.4881 29.1493L40.8297 29.3339L40.9404 29.6817L41.1202 29.7694C41.1983 29.8342 41.2617 29.9141 41.3103 30.009C41.3529 30.0921 41.3804 30.1604 41.3928 30.214L41.5804 30.1853L41.6837 30.6942L41.9281 30.9959C42.0482 31.0842 42.1326 31.1758 42.1812 31.2708C42.2298 31.3657 42.261 31.4996 42.2746 31.6724L42.4269 31.7067L42.9154 32.2655ZM54.0693 20.2389L54.0098 20.5615L54.371 20.9158L54.2763 21.3013L54.3788 21.7207L54.3709 21.8371L54.4521 21.9079C54.5372 22.074 54.5595 22.2199 54.519 22.3455L54.5107 22.4171L54.5472 22.4884C54.6253 22.5532 54.6826 22.6212 54.7191 22.6924C54.7495 22.7518 54.7648 22.7963 54.7651 22.8261L54.8194 22.8882L54.8485 23.1205L55.0113 23.3068L54.9418 23.5221L55.1228 23.744L55.2935 23.8139L55.2062 24.0384L55.3521 24.3232L55.3733 24.6718L55.6082 24.9111L55.5743 25.1082L55.8162 25.1416L55.7766 25.6787L55.7862 25.7412L55.9824 25.6856L56.0675 26.1589L56.104 26.2301C56.1465 26.3131 56.174 26.3815 56.1864 26.435L56.2316 26.4793L56.5346 26.369L56.9484 26.6065L56.9605 26.9374L57.1472 26.8193C57.2914 26.9252 57.3967 27.0286 57.4633 27.1293L57.333 27.5331C57.2925 27.6587 57.2164 27.8025 57.1046 27.9646L56.8841 28.2798L56.7495 28.2364L56.6262 28.4344L55.7461 28.0761L55.5911 27.7735C55.3984 27.5726 55.2503 27.3713 55.147 27.1696L55.0923 27.0628L54.4476 26.0672L54.2071 25.2466L53.8815 24.8741L53.8342 25.5275L53.911 26.0724L53.805 26.2165L53.7564 26.7358L53.5211 27.3731L53.5058 27.6506L53.2874 28.1894L53.3169 28.4664L52.9296 29.1141L52.6708 30.1005L52.3691 30.345L52.2288 30.6415C51.9261 30.7816 51.6428 30.7843 51.3792 30.6497C50.7114 30.6621 50.2411 30.4311 49.9682 29.9567L50.0298 29.8577L49.9573 29.76L49.8301 29.5555L49.6048 29.3788L49.5839 29.0749L49.4281 28.6828L49.2519 28.0316C49.2458 28.0197 49.2336 27.996 49.2154 27.9604C49.1914 27.9427 49.1733 27.922 49.1611 27.8983C49.1368 27.8508 49.1183 27.7854 49.1056 27.702C49.0815 27.6844 49.0513 27.64 49.0148 27.5688C48.9723 27.4857 48.938 27.331 48.9119 27.1046L49.0092 26.9874C48.9076 26.9645 48.8386 26.9175 48.8021 26.8463C48.7778 26.7988 48.7655 26.7602 48.7652 26.7304C48.7351 26.7008 48.7079 26.6623 48.6836 26.6149C48.6107 26.4725 48.6272 26.3292 48.7331 26.185C48.7079 26.0481 48.7124 25.896 48.7466 25.7287L48.5846 25.6319L48.6615 25.2555L48.625 25.1843C48.5096 24.9588 48.4803 24.7116 48.5374 24.4427L48.3555 24.1314L48.3902 24.0237C48.3841 24.0119 48.375 23.9941 48.3628 23.9703C48.3388 23.9527 48.3238 23.9379 48.3177 23.9261C48.2812 23.8549 48.2746 23.7834 48.2977 23.7116L48.243 23.6048C48.2297 23.4618 48.2632 23.22 48.3434 22.8793C48.4235 22.5386 48.4655 22.255 48.4693 22.0283L48.6039 22.0717L48.7541 21.8824L48.8249 21.8013L49.2756 21.2334L50.6827 20.6026L50.7466 20.7272L51.2194 20.5974C51.4923 20.4576 51.7159 20.4555 51.8902 20.5909C51.8719 20.5553 51.8566 20.5108 51.8442 20.4572C51.8259 20.4216 51.8138 20.3979 51.8077 20.386L52.3547 20.5328L52.7294 20.4308L53.2882 19.9423L53.7476 20.2689L54.0693 20.2389ZM52.8522 22.0307L52.7172 21.9425L52.5566 21.9799L51.7768 21.8174L51.3934 21.9464L51.1086 22.0922L51.0548 22.0749L50.9397 22.2012L50.7339 22.1943L50.2711 22.4313L50.361 22.4752L50.0245 22.8272L49.9988 22.9527L49.9545 22.9979C49.8321 23.2853 49.7597 23.5096 49.7374 23.6708L49.8316 24.1619L49.8425 24.3586L50.1481 24.5166L49.964 24.903L50.0361 24.956C50.021 25.2483 50.0682 25.5013 50.1776 25.7149L50.1264 25.9659L50.2905 26.2863L50.2301 26.5194L50.2765 26.6979L50.2414 26.7608L50.369 27.01L50.3612 27.1264C50.4341 27.2688 50.48 27.3876 50.4988 27.4828L50.58 27.5536L50.593 27.9739L50.7189 28.0442L50.6855 28.2861L50.9833 28.5605L50.9151 28.91L51.1239 29.23L51.1513 29.2834L51.2407 29.2825L51.3206 29.2191C51.3496 29.1294 51.3815 29.0456 51.4166 28.9677L51.308 28.8436L51.539 28.6803L51.5286 28.5284L52.1413 27.136L52.2299 27.0457L52.1995 26.6793C52.2585 26.6191 52.3351 26.5199 52.4292 26.3819L52.3901 26.0424L52.5325 25.9694L52.3241 25.6942L52.5551 25.5309C52.5545 25.4713 52.5597 25.3937 52.5707 25.2982C52.5936 25.1966 52.6195 25.1009 52.6485 25.0112L52.9364 23.3358L52.9421 22.9958L52.8878 22.9337L52.9121 22.6741L52.8474 22.4601L52.9347 22.2356L52.8522 22.0307ZM66.6029 14.8535C66.6576 14.9603 66.6025 15.1159 66.4375 15.3202C66.4204 15.4039 66.3588 15.5029 66.2525 15.6172C66.1229 15.7735 66.0346 15.8936 65.9877 15.9776L65.55 16.0444C65.4331 16.2841 65.2263 16.4799 64.9296 16.6318L64.6886 16.6878L64.6013 16.9123L64.1207 17.1584L63.9184 17.5092C63.7635 17.5286 63.6268 17.5687 63.5081 17.6295C63.4846 17.6714 63.4137 17.7377 63.2953 17.8283C63.236 17.8587 63.1616 17.8743 63.0722 17.8752L63.3652 18.579L63.6383 19.0683L63.904 19.7187L64.286 20.3769L64.5035 20.67L64.6311 20.9192L65.1539 21.3256C65.1365 21.3794 65.14 21.4301 65.1643 21.4776C65.2068 21.5606 65.3708 21.559 65.6562 21.4728L65.8012 21.6682L65.9531 21.6578L66.2397 21.6908L66.4368 21.7247C66.5433 21.6401 66.6203 21.5857 66.6678 21.5614C66.7746 21.5067 66.8905 21.4698 67.0156 21.4507C67.0509 21.4027 67.1092 21.2679 67.1906 21.0465C67.2487 20.8969 67.3253 20.7977 67.4202 20.7491C67.4321 20.743 67.4499 20.7339 67.4736 20.7218C67.5035 20.7215 67.5243 20.7183 67.5362 20.7122C67.5275 20.432 67.6414 20.1864 67.8779 19.9755C68.1271 19.8478 68.3743 19.8186 68.6194 19.8878L68.6833 20.0124C68.8899 20.4159 68.8782 20.744 68.6481 20.9966C68.6689 21.3006 68.5254 21.5763 68.2178 21.8237L68.1044 22.1289L67.873 22.2474L67.5183 22.5639C67.4355 22.6363 67.3051 22.7181 67.1271 22.8092C67.0321 22.8579 66.9191 22.8858 66.788 22.893L66.5566 23.0115L65.7603 22.9924L65.5728 23.021L64.9437 22.7141L64.6115 22.592L63.7641 21.9025L63.1932 21.1388L63.1194 20.907L62.8767 20.7841L62.838 20.4893L62.5485 20.1432L62.6093 19.9548L62.5263 19.7052L62.3635 19.5189L62.235 19.1803L62.018 18.9319L62.0614 18.7973L61.9155 18.5125L61.7636 18.5229L61.4618 18.7673L61.0229 18.7L60.9695 18.7274C60.6134 18.9097 60.3382 18.811 60.1437 18.4312L60.1163 18.3778L59.7295 18.149L59.9036 17.6554L60.3851 17.4986L60.5983 17.3445L60.9821 17.2603L61.3559 17.0689L61.1736 16.7128L60.6869 16.3329L60.8545 16.0898L60.6288 15.8684L60.3639 15.3074L60.103 15.1489C59.9531 15.0609 59.8508 14.9635 59.7961 14.8567C59.7292 14.7262 59.7042 14.6042 59.721 14.4907L59.6467 14.2141L59.7162 13.9988C60.0063 13.7754 60.2047 13.6363 60.3115 13.5816C60.6912 13.3871 60.987 13.4528 61.1989 13.7787L61.1911 13.8951C61.317 13.9654 61.4043 14.0481 61.4529 14.143C61.459 14.1549 61.4682 14.1876 61.4807 14.2411L61.4998 14.3662L61.5458 14.4999L61.7355 14.6948L61.7633 14.793L61.9265 15.024L61.8757 15.3196L62.1471 15.6301L62.2947 16.0938L62.5191 16.181L62.5408 16.5744L63.0562 16.2206L64.0808 15.8082L64.8003 15.2824L65.0764 15.1635L65.1563 15.1001L65.8505 14.7445C66.2184 14.5561 66.4692 14.5924 66.6029 14.8535ZM74.0261 10.0182L73.9666 10.3407L74.3279 10.695L74.2332 11.0806L74.3356 11.5L74.3278 11.6163L74.409 11.6871C74.4941 11.8533 74.5164 11.9991 74.4758 12.1248L74.4676 12.1964L74.5041 12.2676C74.5822 12.3324 74.6395 12.4005 74.676 12.4717C74.7064 12.531 74.7217 12.5756 74.722 12.6054L74.7763 12.6675L74.8053 12.8998L74.9682 13.086L74.8987 13.3014L75.0797 13.5232L75.2503 13.5931L75.1631 13.8176L75.3089 14.1024L75.3302 14.4511L75.5651 14.6903L75.5312 14.8874L75.773 14.9209L75.7335 15.4579L75.743 15.5204L75.9393 15.4649L76.0244 15.9381L76.0608 16.0093C76.1034 16.0924 76.1309 16.1607 76.1433 16.2143L76.1885 16.2585L76.4915 16.1483L76.9053 16.3858L76.9174 16.7166L77.1041 16.5985C77.2482 16.7045 77.3536 16.8078 77.4202 16.9085L77.2899 17.3123C77.2494 17.4379 77.1732 17.5818 77.0615 17.7439L76.8409 18.0591L76.7064 18.0156L76.583 18.2136L75.703 17.8554L75.548 17.5528C75.3553 17.3519 75.2072 17.1506 75.1039 16.9488L75.0492 16.842L74.4045 15.8464L74.164 15.0259L73.8384 14.6533L73.791 15.3067L73.8679 15.8516L73.7619 15.9958L73.7133 16.515L73.4779 17.1524L73.4627 17.4298L73.2443 17.9686L73.2738 18.2456L72.8865 18.8934L72.6277 19.8798L72.3259 20.1242L72.1857 20.4207C71.8829 20.5608 71.5997 20.5636 71.336 20.4289C70.6683 20.4414 70.1979 20.2104 69.925 19.736L69.9867 19.637L69.9142 19.5393L69.787 19.3348L69.5616 19.1581L69.5408 18.8541L69.385 18.4621L69.2087 17.8108C69.2026 17.799 69.1905 17.7752 69.1723 17.7396C69.1482 17.722 69.1301 17.7013 69.118 17.6775C69.0937 17.6301 69.0752 17.5646 69.0624 17.4813C69.0384 17.4636 69.0082 17.4192 68.9717 17.348C68.9291 17.2649 68.8948 17.1102 68.8688 16.8839L68.9661 16.7666C68.8645 16.7438 68.7954 16.6967 68.759 16.6255C68.7347 16.5781 68.7224 16.5394 68.7221 16.5096C68.692 16.4801 68.6648 16.4416 68.6405 16.3941C68.5675 16.2517 68.584 16.1084 68.69 15.9643C68.6648 15.8274 68.6693 15.6753 68.7034 15.508L68.5415 15.4112L68.6184 15.0347L68.5819 14.9635C68.4664 14.738 68.4372 14.4909 68.4942 14.222L68.3123 13.9107L68.3471 13.803C68.341 13.7911 68.3319 13.7733 68.3197 13.7496C68.2957 13.7319 68.2806 13.7172 68.2746 13.7053C68.2381 13.6341 68.2314 13.5626 68.2546 13.4908L68.1999 13.384C68.1866 13.241 68.22 12.9992 68.3002 12.6585C68.3804 12.3179 68.4224 12.0342 68.4262 11.8076L68.5608 11.851L68.711 11.6617L68.7818 11.5805L69.2325 11.0126L70.6396 10.3818L70.7034 10.5065L71.1762 10.3767C71.4492 10.2369 71.6728 10.2347 71.847 10.3702C71.8288 10.3346 71.8135 10.29 71.801 10.2365C71.7828 10.2008 71.7706 10.1771 71.7646 10.1652L72.3116 10.312L72.6863 10.21L73.2451 9.72159L73.7044 10.0481L74.0261 10.0182ZM72.8091 11.8099L72.6741 11.7218L72.5134 11.7591L71.7337 11.5967L71.3503 11.7256L71.0655 11.8715L71.0116 11.8541L70.8966 11.9805L70.6908 11.9735L70.2279 12.2105L70.3178 12.2544L69.9813 12.6065L69.9557 12.732L69.9114 12.7771C69.789 13.0645 69.7166 13.2889 69.6943 13.4501L69.7885 13.9411L69.7993 14.1378L70.105 14.2958L69.9209 14.6822L69.993 14.7352C69.9779 15.0276 70.0251 15.2805 70.1345 15.4941L70.0832 15.7451L70.2473 16.0655L70.187 16.2987L70.2334 16.4771L70.1982 16.5401L70.3259 16.7893L70.3181 16.9056C70.391 17.048 70.4369 17.1669 70.4557 17.2621L70.5369 17.3329L70.5499 17.7531L70.6758 17.8235L70.6423 18.0653L70.9402 18.3397L70.872 18.6892L71.0808 19.0092L71.1082 19.0626L71.1976 19.0617L71.2775 18.9984C71.3064 18.9086 71.3384 18.8248 71.3734 18.747L71.2649 18.6228L71.4959 18.4596L71.4855 18.3076L72.0981 16.9153L72.1867 16.825L72.1563 16.4585C72.2154 16.3983 72.292 16.2992 72.386 16.1611L72.347 15.8216L72.4894 15.7487L72.281 15.4734L72.512 15.3102C72.5114 15.2505 72.5166 15.173 72.5276 15.0774C72.5505 14.9759 72.5764 14.8802 72.6053 14.7905L72.8933 13.115L72.8989 12.7751L72.8447 12.713L72.869 12.4534L72.8043 12.2393L72.8916 12.0148L72.8091 11.8099ZM85.333 9.82255L85.2548 10.0648L85.527 10.4647L85.3729 11.1728L85.4823 11.3864L85.4128 11.6018L85.6017 11.7073L85.4189 12.2278L85.388 12.738L85.1236 13.1431C85.0541 13.3584 84.9393 13.5146 84.7793 13.6115L84.801 14.0049L84.5409 13.9358L84.4814 14.2584C84.451 14.1991 84.364 14.1462 84.2205 14.0999L84.0594 14.0925L83.999 14.3257L83.9456 14.353L83.8944 14.604L83.59 14.5801L83.2983 14.9318L82.9575 14.8367C82.9279 14.8668 82.8776 14.9 82.8064 14.9365C82.6165 15.0338 82.3518 15.1019 82.0123 15.141L81.6992 15.144L81.5646 15.1006L81.2251 15.1396L80.909 14.8296C80.7012 14.9211 80.4692 14.98 80.2131 15.0063L79.429 14.3967L79.4186 14.2447L79.2566 14.1479L79.0925 13.8275L78.8946 13.7042L78.8564 13.4541C78.7539 13.3418 78.6784 13.2382 78.6297 13.1432C78.6176 13.1195 78.6114 13.0927 78.6111 13.0629C78.5928 13.0273 78.5807 13.0036 78.5746 12.9917L78.292 12.4399L78.272 12.2254L77.7519 11.166L77.6777 10.8894L77.534 10.8282L77.4389 10.2477L77.3035 10.1148L77.1029 9.72322L77.1372 9.57083L76.9918 9.33073L76.8294 9.18918L76.6979 8.53749L76.2086 7.88926L76.2347 7.8085L76.1161 7.57709C76.0976 7.51167 76.0549 7.41369 75.9881 7.28315C75.903 7.11701 75.8243 6.99254 75.7519 6.90976L75.7237 6.76691L75.3169 6.32361C75.2981 6.22838 75.3092 6.14777 75.3503 6.08178C75.3084 6.05834 75.2574 6.03199 75.1975 6.00276C75.1966 5.91332 75.178 5.833 75.1415 5.76179C75.0929 5.66685 74.9967 5.58132 74.8528 5.50519C74.7981 5.39838 74.7673 5.29432 74.7603 5.19302L74.598 5.05147L74.5867 4.81007L73.9919 4.3507L74.2494 4.15143L74.2311 4.11582L74.6901 3.47632L75.2019 3.68604L75.3287 3.84582L75.696 3.90488L75.815 4.18102C75.8636 4.27596 75.9186 4.41258 75.9799 4.59088C76.1056 4.63141 76.1866 4.68727 76.2231 4.75848C76.2413 4.79408 76.2507 4.84169 76.2513 4.90132L76.359 4.93606L76.4336 5.25734L76.7223 5.51395L76.7683 5.64767L77.0545 5.63596L77.0484 5.9312L77.1786 6.44873C77.2032 6.52601 77.2342 6.64498 77.2715 6.80562C77.3436 6.85859 77.4434 7.00969 77.5711 7.2589L77.6084 7.41955L77.7347 7.53461L77.7916 7.86501C77.8463 7.97182 77.8832 8.08774 77.9023 8.21278L77.9118 8.2753C78.0016 8.30425 78.1063 8.34796 78.2262 8.40644L78.2218 8.88055L78.3846 9.06681L78.4037 9.19185C78.4523 9.28679 78.4923 9.40865 78.5235 9.55743L78.5778 9.61951L78.6603 9.82444L78.7792 10.1006L79.0176 10.6976L79.2763 10.6325L79.0293 10.0624L78.9625 9.62474L79.0519 9.62388L79.022 9.30216C78.96 9.06423 78.9516 8.81386 78.9968 8.55105C78.9962 8.49142 79.0075 8.42572 79.0307 8.35394L79.0567 8.27318L79.075 8.30878L79.0368 8.0587L79.1319 7.71788L79.1927 7.52946L79.174 7.44914L79.2079 7.25203C79.1289 7.09775 79.1245 6.95766 79.1949 6.83175L79.1575 6.67111L79.3525 6.48138L79.4141 6.3824L79.395 6.25736L79.2496 6.01726L79.4893 5.8271L79.6043 5.70076L79.4159 5.63997L79.6643 5.4229L79.8484 5.0365L80.4002 4.75388L80.8387 4.77647L80.9546 4.73957L81.476 5.01182L81.585 5.18071L81.7365 5.12558L81.9814 5.47205L82.2323 5.5233L82.3691 5.79032L82.5397 5.86022L82.7008 5.86761L83.0637 6.40078L83.0911 6.45419C83.1215 6.51353 83.1996 6.57836 83.3255 6.64871C83.4454 6.70718 83.5235 6.77202 83.56 6.84322C83.5964 6.91443 83.6151 6.99475 83.616 7.08419L83.8752 7.06379C83.9365 7.24209 83.9618 7.39391 83.9511 7.51924L84.2051 7.88351C84.3134 7.97788 84.3827 8.05473 84.4131 8.11407C84.4313 8.14967 84.4529 8.22102 84.4777 8.32811L84.852 9.10268L85.0052 9.22643L85.0799 9.54772L85.333 9.82255ZM83.4565 9.09828L83.2568 8.79609L83.1019 8.49347L82.5579 7.73843L82.0968 7.23304L81.601 6.83533L80.8903 6.41285L80.8195 6.49404L80.7939 6.61951L80.7049 6.66509C80.7668 6.90302 80.694 7.08262 80.4865 7.20389C80.4584 7.38305 80.425 7.62488 80.3862 7.92938L80.2728 8.23459L80.3384 8.53808L80.2698 8.84286L80.3197 9.37906C80.423 9.58081 80.4583 9.83986 80.4256 10.1562L80.4008 10.3711L80.5645 10.6468L80.4802 11.1843L80.6569 11.8803L80.5688 12.0153C80.5749 12.0272 80.5929 12.0479 80.623 12.0774C80.6413 12.113 80.6565 12.1427 80.6686 12.1664C80.778 12.38 80.834 12.621 80.8366 12.8893L81.1075 13.155L80.9395 13.3535L80.9404 13.4429L80.8709 13.6582L81.3081 13.5467L81.6033 13.5528L81.932 13.317L82.3254 13.2953L82.453 13.5446L82.5607 13.5793L82.9879 13.3605L83.2454 13.1612C83.2619 13.0179 83.3413 12.9098 83.4837 12.8369L83.5371 12.8096L83.6522 12.6832L83.4716 12.5061L83.97 12.2508C83.9188 11.8875 83.9748 11.5143 84.1381 11.1311L84.0469 10.9531L84.06 10.452L83.8503 10.0426L83.6667 9.55243L83.4852 9.28585L83.4565 9.09828Z" fill="#F65077"/>
</svg>
