<svg width="79" height="20" viewBox="0 0 79 20" fill="none" xmlns="http://www.w3.org/2000/svg">
<g id="Group">
<path id="Vector" d="M10.4292 4.53163V17.2334C10.4292 18.1929 9.64045 18.9817 8.68091 18.9817C7.69698 18.9817 6.9326 18.1929 6.9326 17.2334V4.53163H2.08613C1.18351 4.53163 0.45166 3.79978 0.45166 2.89715C0.45166 1.97014 1.15911 1.23828 2.08613 1.23828H15.2594C16.1295 1.23828 16.9183 1.97014 16.9183 2.89715C16.9183 3.79978 16.1621 4.53163 15.2594 4.53163H10.4292Z" fill="#FA507B"/>
<path id="Vector_2" d="M20.2361 9.99613C20.2361 4.95446 24.18 0.92926 29.2461 0.92926C34.3122 0.92926 38.2317 4.95446 38.2317 9.99613C38.2317 15.0622 34.3203 19.1199 29.2461 19.1199C24.18 19.1199 20.2361 15.0622 20.2361 9.99613ZM23.7571 9.99613C23.7571 13.2326 25.9527 15.8835 29.2461 15.8835C32.5395 15.8835 34.735 13.2407 34.735 9.99613C34.735 6.7597 32.5395 4.16568 29.2461 4.16568C25.9527 4.16568 23.7571 6.7597 23.7571 9.99613Z" fill="#FA507B"/>
<path id="Vector_3" d="M45.4119 18.7785C44.428 18.7785 43.6636 17.9897 43.6636 17.0057V2.98661C43.6636 2.00267 44.4198 1.23828 45.4119 1.23828H51.4944C55.0968 1.23828 57.1541 2.98661 57.1541 5.49119C57.1541 7.26391 56.2271 8.70322 54.8203 9.40255C56.959 10.0531 58.0567 11.8258 58.0567 13.7937C58.0567 16.5829 55.7229 18.7785 51.6652 18.7785H45.4119ZM47.1602 4.47472V7.90631C48.9899 7.90631 51.779 7.90631 51.779 7.90631C53.0476 7.90631 53.6412 7.06061 53.6412 6.15799C53.6412 5.23097 53.0476 4.46659 51.779 4.46659H47.1602V4.47472ZM47.1602 11.1184V15.542H52.145C53.8608 15.542 54.5682 14.3629 54.5682 13.2895C54.5682 12.2487 53.8608 11.1184 52.145 11.1184C52.1368 11.1184 50.2828 11.1184 47.1602 11.1184Z" fill="#FA507B"/>
<path id="Vector_4" d="M72.5883 11.1509V17.2334C72.5883 18.193 71.7996 18.9817 70.8156 18.9817C69.8561 18.9817 69.0998 18.1686 69.0998 17.2334V11.1509L63.4158 3.5477C63.1881 3.29562 63.0742 2.92969 63.0742 2.58816C63.0742 1.68554 63.8061 0.986206 64.6762 0.986206C65.1803 0.986206 65.6601 1.23829 65.9447 1.63674L70.8156 8.3129L75.6865 1.63674C75.9955 1.24642 76.4428 0.986206 76.9551 0.986206C77.8577 0.986206 78.557 1.71806 78.557 2.58816C78.557 2.95409 78.4432 3.29562 78.248 3.5477L72.5883 11.1509Z" fill="#FA507B"/>
</g>
</svg>
