<svg width="575" height="244" viewBox="17 17 575 244" xmlns="http://www.w3.org/2000/svg" xmlns:xlink="http://www.w3.org/1999/xlink"><defs><path d="M548.5 42H398c-5 0-9 4-9 9v184c0 5 4 9 9 9h168c5 0 9-4 9-9V51c0-5-4-9-9-9h-3.2l-7.2-7-7 7z" id="a"/><mask id="b" x="0" y="0" width="186" height="209" fill="#fff"><use xlink:href="#a"/></mask></defs><g fill="none" fill-rule="evenodd" transform="translate(17 17)"><rect fill="#34343F" x="1" y="3" width="78.7" height="16" rx="8"/><rect fill="#34343F" y="39" width="96.9" height="65.1" rx="9"/><rect fill="#34343F" x="107" y="39" width="96.9" height="65.1" rx="9"/><rect fill="#34343F" y="116" width="96.9" height="65.1" rx="9"/><rect fill="#34343F" x="107" y="116" width="96.9" height="65.1" rx="9"/><rect fill="#34343F" x="214" y="39" width="96.9" height="65.1" rx="9"/><rect fill="#34343F" x="320" y="37" width="96.9" height="65.1" rx="9"/><use stroke="#44444E" mask="url(#b)" stroke-width="6" fill="#21212A" xlink:href="#a"/><rect fill="#76404C" x="396" y="94" width="172" height="33" rx="4"/><rect fill="#35353F" x="396" y="131" width="172" height="33" rx="4"/><rect fill="#35353F" x="396" y="168" width="172" height="33" rx="4"/><rect fill="#595968" x="545" width="20" height="28" rx="3"/><rect fill="#35353F" x="520" width="20" height="28" rx="3"/><g stroke="#CACACA" stroke-width="2" stroke-linecap="round" stroke-linejoin="round"><path d="M527 17.8l3 2.7M530 20.5l3-2.7M527 10.8l3-2.8M530 8l3 2.8"/></g><g transform="translate(553 6)" fill="#ABABAB"><circle cx="2" cy="2" r="2"/><circle cx="2" cy="8" r="2"/><circle cx="2" cy="14" r="2"/></g><path d="M466.3 112.3l1.2-6.3h2.4l-2.3 10h-2.4l-1.4-5.7-1.4 5.7H460l-2-10h2.4l1 6.3 1.5-6.3h2l1.3 6.3zm15.3-1c0 1-.2 1.8-.6 2.5-.3.8-1 1.3-1.5 1.7-.7.4-1.4.6-2.3.6-.8 0-1.6 0-2.2-.4-.7-.4-1.2-1-1.6-1.7-.3-.8-.5-1.7-.6-2.6v-.6c0-1 .2-1.8.6-2.6.3-.7 1-1.3 1.5-1.7.6-.4 1.3-.6 2.2-.6.8 0 1.6 0 2.3.5.6.4 1 1 1.5 1.7.4.8.5 1.6.6 2.6v.4zm-2.5-.5c0-1 0-1.7-.4-2.2-.3-.6-.8-.8-1.4-.8-1.2 0-1.8 1-2 2.7v.7c0 1 .2 1.8.6 2.3.3.5.8.8 1.4.8.6 0 1-.3 1.4-.8.3-.5.5-1.3.5-2.2v-.5zm9.8 1.7h-1.3v3.5H485v-10h4c1.2 0 2 .3 2.8.8.7.6 1 1.3 1 2.3 0 .7 0 1.3-.4 1.8-.3.4-.7.8-1.3 1l2.2 4v.2h-2.6l-1.8-3.5zm-1.3-2h1.5c.5 0 .8 0 1-.2.3-.3.4-.6.4-1 0-.5 0-.8-.3-1-.2-.3-.5-.4-1-.4h-1.5v2.6zm12.5 1.8l-1 1v2.7h-2.4v-10h2.4v4.4l.8-1.2 2.2-3.2h3l-3.4 4.4 3.3 5.6h-3l-2-3.7z" fill="#FFF"/><path d="M440 148.6v3.4h-2.4v-10h4c.8 0 1.4.2 2 .5.6.2 1 .6 1.4 1.2.3.5.5 1 .5 1.7 0 1-.4 1.8-1 2.4-.8.5-1.7.8-3 .8H440zm0-1.8h1.6c.5 0 .8 0 1-.4.3-.2.4-.5.4-1 0-.4 0-.8-.3-1-.3-.4-.6-.5-1-.5H440v2.8zm15.2 1h-3.7v2.4h4.4v1.8h-7v-10h7v2h-4.5v2h3.7v1.8zm7.7.7h-1.4v3.5h-2.4v-10h4c1 0 2 .3 2.7.8.6.6 1 1.3 1 2.3 0 .7-.2 1.3-.5 1.8-.3.4-.7.8-1.3 1l2 4v.2h-2.5l-1.8-3.5zm-1.4-2h1.6c.4 0 .8 0 1-.2.2-.3.3-.6.3-1 0-.5 0-.8-.3-1-.3-.3-.6-.4-1-.4h-1.6v2.6zm14.2 3c0-.5 0-.8-.3-1l-1.3-.6-1.6-.7c-1.3-.6-2-1.5-2-2.6 0-.5.3-1 .6-1.5.3-.4.7-.7 1.3-1 .6-.2 1.3-.3 2-.3s1.4 0 2 .3c.5.2 1 .6 1.3 1 .3.6.4 1 .4 1.7h-2.4c0-.4 0-.7-.3-1-.3-.2-.6-.3-1-.3-.5 0-.8 0-1 .3-.3.2-.4.4-.4.7 0 .3.2.5.5.7l1.4.7 1.6.8c1 .6 1.6 1.5 1.6 2.5s-.3 1.6-1 2c-.6.6-1.5.8-2.6.8-1 0-1.6 0-2.2-.3-.7-.3-1.2-.7-1.5-1.2-.4-.5-.6-1-.6-1.7h2.4c0 .5 0 1 .4 1.2.3.2.7.3 1.4.3.3 0 .7 0 1-.2l.2-.6zm14.4-2.3c0 1 0 2-.5 2.6-.4.8-1 1.3-1.5 1.7-.7.4-1.5.6-2.3.6-1 0-1.7 0-2.4-.4-.6-.4-1-1-1.5-1.7-.3-.8-.5-1.7-.5-2.6v-.6c0-1 .2-1.8.6-2.6.4-.7 1-1.3 1.6-1.7.7-.4 1.4-.6 2.3-.6.7 0 1.5 0 2 .5.8.4 1.3 1 1.7 1.7.3.8.5 1.6.5 2.6v.4zm-2.4-.4c0-1-.2-1.7-.5-2.2-.3-.6-.8-.8-1.4-.8-1.3 0-2 1-2 2.7v.7c0 1 0 1.8.4 2.3.4.5 1 .8 1.5.8s1-.3 1.3-.8c.3-.5.5-1.3.5-2.2v-.5zM502 152h-2.3l-3.5-6.2v6.2h-2.4v-10h2.4l3.5 6.2V142h2.4v10zm9.7-2h-3.2l-.6 2h-2.7l3.7-10h2.2l3.7 10h-2.7l-.6-2zm-2.7-1.7h2.2l-1-3.5-1.2 3.5zm11.4 2h4v1.7H518v-10h2.4v8.2zM444 186.4c0-.4 0-.7-.4-1l-1.3-.5-1.5-.7c-1.3-.6-2-1.5-2-2.6 0-.5.2-1 .5-1.5.4-.4.8-.7 1.4-1 .6-.2 1.3-.3 2-.3s1.3 0 2 .3c.5.2 1 .6 1.2 1 .3.6.4 1 .4 1.7H444c0-.4 0-.7-.4-1-.2-.2-.5-.3-1-.3-.4 0-.7 0-1 .3-.2.2-.4.4-.4.7 0 .3.2.5.5.7l1.4.7c.8.3 1.4.5 1.8.8 1 .6 1.6 1.5 1.6 2.5s-.3 1.6-1 2c-.6.6-1.5.8-2.7.8-.8 0-1.5 0-2.2-.3-.6-.3-1-.7-1.4-1.2-.3-.5-.4-1-.4-1.7h2.4c0 .5 0 1 .4 1.2.3.2.7.3 1.3.3.4 0 .7 0 1-.2.2 0 .3-.3.3-.6zm14.3 2.6H456v-4.2h-3.6v4.2H450v-10h2.4v4h3.5v-4h2.3v10zm12.3-4.8c0 1-.2 2-.6 2.6-.3.8-.8 1.3-1.5 1.7-.7.4-1.4.6-2.3.6-.8 0-1.6 0-2.2-.4-.7-.4-1.2-1-1.6-1.7-.3-.8-.5-1.7-.5-2.6v-.6c0-1 0-1.8.4-2.6.4-.7 1-1.3 1.5-1.7.6-.4 1.4-.6 2.2-.6 1 0 1.6 0 2.3.5.6.4 1 1 1.5 1.7.4.8.6 1.6.6 2.6v.4zm-2.5-.4c0-1 0-1.7-.4-2.2-.3-.6-.8-.8-1.4-.8-1.2 0-1.8 1-2 2.7v.7c0 1 .3 1.8.6 2.3.3.5.8.8 1.4.8.6 0 1-.3 1.4-.8.4-.5.5-1.3.5-2.2v-.5zm8.5 1.8v3.4H474v-10h4c1 0 1.5.2 2 .5.7.2 1.2.6 1.5 1.2.3.5.5 1 .5 1.7 0 1-.4 1.8-1 2.4-.8.5-1.7.8-3 .8h-1.5zm0-1.8h1.6c.6 0 1 0 1.2-.4.2-.2.3-.5.3-1 0-.4 0-.8-.3-1-.3-.4-.6-.5-1-.5h-1.7v2.8zm11.5 1.8v3.4h-2.4v-10h4c.7 0 1.4.2 2 .5.6.2 1 .6 1.3 1.2.3.5.4 1 .4 1.7 0 1-.3 1.8-1 2.4-.7.5-1.7.8-3 .8H488zm0-1.8h1.6c.4 0 .8 0 1-.4.3-.2.4-.5.4-1 0-.4 0-.8-.4-1-.2-.4-.6-.5-1-.5H488v2.8zm11.6 5.2h-2.4v-10h2.4v10zm12.3 0h-2.5l-3.5-6.2v6.2h-2.4v-10h2.4l3.5 6.2V179h2.4v10zm12-1.2l-1.7 1c-.7.2-1.5.3-2.4.3-1.4 0-2.4-.3-3.2-1-.8-1-1.2-2-1.2-3.4v-.8c0-1 0-2 .5-2.6.4-.7 1-1.3 1.6-1.7.6-.4 1.4-.6 2.2-.6 1.2 0 2.2.2 3 .8.6.5 1 1.4 1 2.5h-2.2c0-.6-.3-1-.5-1.2-.2 0-.6-.3-1-.3-.7 0-1.2.3-1.5.8-.3.5-.5 1.3-.5 2.2v.6c0 1 .2 1.7.5 2.2.3.5 1 .8 1.6.8.7 0 1.2 0 1.5-.4v-1.7h-1.7v-1.6h4v4z" fill="#BCBDC2"/><path stroke="#FFF" stroke-width="3" stroke-linecap="round" stroke-linejoin="round" d="M546.3 110.6l4 4.5 7.8-9"/></g></svg>