<svg width="1015" height="749" viewBox="0 0 1015 749" fill="none" xmlns="http://www.w3.org/2000/svg">
<g clip-path="url(#clip0_3574_17042)">
<rect width="1015" height="749" fill="#FAFAFA"/>
<path opacity="0.5" d="M275.992 206.556C275.992 204.899 277.335 203.556 278.992 203.556H492.992C494.649 203.556 495.992 204.899 495.992 206.556V263.556H275.992V206.556Z" fill="#EEEEFA"/>
<path opacity="0.5" d="M275.992 263.556H495.992V298.556C495.992 301.317 493.754 303.556 490.992 303.556H280.992C278.231 303.556 275.992 301.317 275.992 298.556V263.556Z" fill="#EEEEFA"/>
<path opacity="0.5" d="M515.992 206.556C515.992 204.899 517.335 203.556 518.992 203.556H732.992C734.649 203.556 735.992 204.899 735.992 206.556V263.556H515.992V206.556Z" fill="#EEEEFA"/>
<path opacity="0.5" d="M515.992 263.556H735.992V298.556C735.992 301.317 733.754 303.556 730.992 303.556H520.992C518.231 303.556 515.992 301.317 515.992 298.556V263.556Z" fill="#EEEEFA"/>
<path opacity="0.5" d="M755.992 206.556C755.992 204.899 757.335 203.556 758.992 203.556H972.992C974.649 203.556 975.992 204.899 975.992 206.556V263.556H755.992V206.556Z" fill="#EEEEFA"/>
<path opacity="0.5" d="M755.992 263.556H975.992V300.556C975.992 302.213 974.649 303.556 972.992 303.556H758.992C757.335 303.556 755.992 302.213 755.992 300.556V263.556Z" fill="#EEEEFA"/>
<rect x="275.992" y="163.556" width="136" height="12" rx="5" fill="#EEEEFA"/>
<path opacity="0.5" d="M275.992 406.556C275.992 404.899 277.335 403.556 278.992 403.556H492.992C494.649 403.556 495.992 404.899 495.992 406.556V463.556H275.992V406.556Z" fill="#EEEEFA"/>
<path opacity="0.5" d="M275.992 463.556H495.992V500.556C495.992 502.213 494.649 503.556 492.992 503.556H278.992C277.335 503.556 275.992 502.213 275.992 500.556V463.556Z" fill="#EEEEFA"/>
<path opacity="0.5" d="M515.992 406.556C515.992 404.899 517.335 403.556 518.992 403.556H732.992C734.649 403.556 735.992 404.899 735.992 406.556V463.556H515.992V406.556Z" fill="#EEEEFA"/>
<path opacity="0.5" d="M515.992 463.556H735.992V500.556C735.992 502.213 734.649 503.556 732.992 503.556H518.992C517.335 503.556 515.992 502.213 515.992 500.556V463.556Z" fill="#EEEEFA"/>
<path opacity="0.5" d="M755.992 406.556C755.992 404.899 757.335 403.556 758.992 403.556H972.992C974.649 403.556 975.992 404.899 975.992 406.556V463.556H755.992V406.556Z" fill="#EEEEFA"/>
<path opacity="0.5" d="M755.992 463.556H975.992V500.556C975.992 502.213 974.649 503.556 972.992 503.556H758.992C757.335 503.556 755.992 502.213 755.992 500.556V463.556Z" fill="#EEEEFA"/>
<rect x="275.992" y="362.556" width="136" height="12" rx="5" fill="#EEEEFA"/>
<path opacity="0.5" d="M275.992 604.556C275.992 602.899 277.335 601.556 278.992 601.556H492.992C494.649 601.556 495.992 602.899 495.992 604.556V661.556H275.992V604.556Z" fill="#EEEEFA"/>
<path opacity="0.5" d="M275.992 661.556H495.992V698.556C495.992 700.213 494.649 701.556 492.992 701.556H278.992C277.335 701.556 275.992 700.213 275.992 698.556V661.556Z" fill="#EEEEFA"/>
<path opacity="0.5" d="M515.992 604.556C515.992 602.899 517.335 601.556 518.992 601.556H732.992C734.649 601.556 735.992 602.899 735.992 604.556V661.556H515.992V604.556Z" fill="#EEEEFA"/>
<path opacity="0.5" d="M515.992 661.556H735.992V698.556C735.992 700.213 734.649 701.556 732.992 701.556H518.992C517.335 701.556 515.992 700.213 515.992 698.556V661.556Z" fill="#EEEEFA"/>
<path opacity="0.5" d="M755.992 604.556C755.992 602.899 757.335 601.556 758.992 601.556H972.992C974.649 601.556 975.992 602.899 975.992 604.556V661.556H755.992V604.556Z" fill="#EEEEFA"/>
<path opacity="0.5" d="M755.992 661.556H975.992V698.556C975.992 700.213 974.649 701.556 972.992 701.556H758.992C757.335 701.556 755.992 700.213 755.992 698.556V661.556Z" fill="#EEEEFA"/>
<rect x="275.992" y="561.556" width="136" height="12" rx="5" fill="#EEEEFA"/>
<rect x="281.625" y="36.9526" width="248.386" height="8.56975" rx="4.28487" fill="#EEEEFA"/>
<rect opacity="0.5" x="0.5" y="-4.5" width="66.1493" height="742" rx="4.5" stroke="#DDDDF5"/>
<g opacity="0.5" filter="url(#filter0_d_3574_17042)">
<path d="M245.805 -0.183105V731.102" stroke="#DDDDF5"/>
</g>
<rect x="80" y="40.6152" width="136" height="10.5266" rx="5" fill="#EEEEFA"/>
<rect x="840" y="91.4937" width="136" height="10.5266" rx="5" fill="#F65077"/>
<rect x="80" y="148.513" width="136" height="10.5266" rx="5" fill="#EEEEFA"/>
<rect x="80" y="171.32" width="136" height="10.5266" rx="5" fill="#EEEEFA"/>
<rect x="80" y="194.127" width="136" height="10.5266" rx="5" fill="#EEEEFA"/>
<rect x="80" y="216.935" width="136" height="10.5266" rx="5" fill="#EEEEFA"/>
<rect x="80" y="239.743" width="136" height="10.5266" rx="5" fill="#EEEEFA"/>
<rect x="8.41406" y="26" width="40" height="40" rx="20" fill="#F65077"/>
</g>
<defs>
<filter id="filter0_d_3574_17042" x="230.305" y="-13.1831" width="31" height="761.285" filterUnits="userSpaceOnUse" color-interpolation-filters="sRGB">
<feFlood flood-opacity="0" result="BackgroundImageFix"/>
<feColorMatrix in="SourceAlpha" type="matrix" values="0 0 0 0 0 0 0 0 0 0 0 0 0 0 0 0 0 0 127 0" result="hardAlpha"/>
<feOffset dy="2"/>
<feGaussianBlur stdDeviation="7.5"/>
<feColorMatrix type="matrix" values="0 0 0 0 0.439216 0 0 0 0 0.439216 0 0 0 0 0.54902 0 0 0 0.25 0"/>
<feBlend mode="normal" in2="BackgroundImageFix" result="effect1_dropShadow_3574_17042"/>
<feBlend mode="normal" in="SourceGraphic" in2="effect1_dropShadow_3574_17042" result="shape"/>
</filter>
<clipPath id="clip0_3574_17042">
<rect width="1015" height="749" fill="white"/>
</clipPath>
</defs>
</svg>
