<svg xmlns="http://www.w3.org/2000/svg" viewBox="0 0 384 384" width="512" height="512"><path d="M373.333 0H138.667C132.77 0 128 4.77 128 10.667V32c0 5.896 4.77 10.667 10.667 10.667h172.5L3.124 350.707c-2.042 2.044-3.082 4.708-3.122 7.384-.042 2.784 1 5.58 3.122 7.704l15.082 15.08c2.01 2.01 4.62 3.052 7.255 3.122 2.825.076 5.675-.965 7.83-3.12L341.333 72.832v172.5c0 5.896 4.77 10.667 10.667 10.667h21.333c5.896 0 10.667-4.77 10.667-10.667V10.667C384 4.77 379.23 0 373.333 0z" fill="#cacaca"/></svg>