<svg width="16" height="12" viewBox="0 0 16 12" fill="none" xmlns="http://www.w3.org/2000/svg">
<path d="M13.999 0H1.99902C1.17402 0 0.506523 0.675 0.506523 1.5L0.499023 10.5C0.499023 11.325 1.17402 12 1.99902 12H13.999C14.824 12 15.499 11.325 15.499 10.5V1.5C15.499 0.675 14.824 0 13.999 0ZM13.699 3.1875L8.39652 6.5025C8.15652 6.6525 7.84152 6.6525 7.60152 6.5025L2.29902 3.1875C2.11152 3.0675 1.99902 2.865 1.99902 2.6475C1.99902 2.145 2.54652 1.845 2.97402 2.1075L7.99902 5.25L13.024 2.1075C13.4515 1.845 13.999 2.145 13.999 2.6475C13.999 2.865 13.8865 3.0675 13.699 3.1875Z" fill="black" fill-opacity="0.2"/>
</svg>
