<svg xmlns="http://www.w3.org/2000/svg" viewBox="0 0 464.257 464.257" width="512" height="512"><path d="M428.274 53.23c-34-28.616-71.683-40.8-107.667-34.85-46.467 7.65-73.667 30.034-88.4 48.168-15.017-18.133-42.217-40.517-88.4-48.167-5.95-1.132-12.183-1.416-18.133-1.416-41.367 0-81.033 22.667-118.433 67.433l-.282.283c-2.833 1.983-4.817 4.817-5.95 8.217-1.133 3.117-1.133 5.667-.85 7.933v329.233c0 6.8 3.967 13.033 10.2 15.583 6.233 2.55 13.6 1.417 18.417-3.4.567-.85 66.583-63.183 120.983-63.183 48.45 0 65.45 53.55 66.017 55.817 0 .283.283.283.283.567s.283.85.567 1.133l.85 1.7c.283.283.283.567.567.85.283.567.85 1.133 1.133 1.7.283.283.283.567.567.567l1.417 1.417.566.567c.567.568 1.417 1.134 1.983 1.418 0 0 .282 0 .282.283 2.55 1.418 5.383 2.268 8.217 2.268h2.266c.283 0 .567 0 .85-.283.283 0 .567 0 .85-.283.567-.283 1.417-.283 1.983-.567.282 0 .566-.283.566-.283.567-.283 1.417-.567 1.983-1.133.282 0 .282-.284.566-.284.567-.283 1.133-.85 1.7-1.417l.567-.568 1.417-1.417s.283-.567.567-.85c.283-.567.85-1.133 1.133-1.7.283-.283.283-.85.567-1.133.283-.567.567-1.133.567-1.7 0-.283.283-.283.283-.567.567-2.267 17.567-55.817 66.017-55.817 54.4 0 120.7 62.333 121.267 63.183 3.118 3.118 7.368 4.818 11.618 4.818 2.267 0 4.533-.567 6.8-1.417 6.233-2.55 10.2-8.782 10.2-15.582V102.53c.283-1.132.283-2.55.283-3.682 0-5.667-1.416-8.783-12.182-21.25-4.537-6.233-13.037-15.3-23.804-24.367zM149.757 345.066c-42.783 0-87.833 27.483-115.883 48.733V105.365c34.567-41.083 69.7-59.217 104.267-53.55 53.268 8.783 72.534 41.083 77.068 50.15v269.45c-18.134-17.284-40.517-26.35-65.45-26.35zm280.784 48.45c-28.332-21.25-73.1-48.733-115.882-48.733-24.933 0-47.033 9.067-65.45 26.35V101.965c4.533-9.35 24.083-41.083 77.067-50.15 4.25-.567 8.5-1.133 12.75-1.133 44.767 0 81.033 40.233 91.517 53.267v289.565z" fill="#9795ac"/></svg>