<svg xmlns="http://www.w3.org/2000/svg" viewBox="0 0 612 612" width="512" height="512"><path d="M612 116.26c-22.52 9.98-46.7 16.75-72.1 19.77 25.94-15.53 45.8-40.16 55.2-69.4-24.33 14.37-51.17 24.8-79.78 30.47-22.9-24.44-55.5-39.66-91.63-39.66-69.34 0-125.56 56.22-125.56 125.5 0 9.84 1.1 19.44 3.25 28.62-104.33-5.24-196.84-55.22-258.76-131.17-10.82 18.5-16.98 40.06-16.98 63.1 0 43.55 22.18 81.98 55.84 104.47-20.58-.7-39.93-6.35-56.87-15.76v1.58c0 60.8 43.3 111.55 100.7 123.1-10.52 2.83-21.6 4.4-33.1 4.4-8.1 0-15.93-.8-23.62-2.33 16 49.9 62.34 86.2 117.26 87.2-42.95 33.65-97.1 53.65-155.9 53.65-10.15 0-20.13-.62-29.96-1.72 55.57 35.68 121.54 56.48 192.44 56.48 230.95 0 357.2-191.3 357.2-357.2l-.43-16.24c24.67-17.6 46-39.7 62.8-64.86z" fill="#f74770"/></svg>