<svg xmlns="http://www.w3.org/2000/svg" viewBox="0 0 512 512" width="512" height="512"><path d="M352.062 314.075c-19.834-20.912-43.665-36.124-68.765-44.408 25.008-22.555 40.754-55.19 40.754-91.44 0-67.898-55.24-123.138-123.138-123.138s-123.14 55.24-123.14 123.138c0 36.248 15.746 68.884 40.754 91.44-25.1 8.284-48.932 23.497-68.766 44.408C17.672 347.906 0 391.728 0 437.468v19.443h401.823V437.47c0-45.74-17.673-89.562-49.76-123.393zM116.658 178.228c0-46.457 37.796-84.253 84.253-84.253 46.458 0 84.254 37.796 84.254 84.253s-37.796 84.253-84.253 84.253c-46.456 0-84.252-37.795-84.252-84.252zM40.256 418.025c9.65-67.94 68.59-116.658 121.77-116.658h77.77c53.18 0 112.12 48.718 121.77 116.658H40.256z" fill="#9795ac"/><path fill="#9795ac" d="M453.67 223.595v-58.33h-38.885v58.33h-58.33v38.886h58.33v58.33h38.886v-58.33H512v-38.885"/></svg>