<svg width="669" height="183" viewBox="0 0 669 183" xmlns="http://www.w3.org/2000/svg"><g fill="none" fill-rule="evenodd"><g opacity=".725"><path d="M44.824 11.41l5.277.58c1.12.124 2.136-.697 2.258-1.822l.577-5.306c.122-1.125-.694-2.147-1.813-2.27l-5.277-.58c-1.12-.123-2.135.697-2.257 1.823l-.576 5.306c-.122 1.126.693 2.148 1.812 2.27" fill="#20F4A8"/><path d="M10.795 105.608l-1.547-5.105c-.328-1.084-1.478-1.7-2.556-1.37l-5.077 1.556c-1.077.33-1.69 1.486-1.362 2.568l1.548 5.107c.328 1.082 1.48 1.7 2.556 1.368l5.077-1.556c1.077-.33 1.69-1.486 1.362-2.57M613.795 81.608l-1.547-5.105c-.328-1.084-1.478-1.7-2.556-1.37l-5.077 1.556c-1.077.33-1.69 1.486-1.362 2.568l1.548 5.107c.328 1.082 1.48 1.7 2.556 1.368l5.077-1.556c1.077-.33 1.69-1.486 1.362-2.57" fill="#FFB6CA"/><path d="M32.203 43.18c-1.65-.685-3.42.686-3.18 2.467l.658 4.95.66 4.953c.237 1.78 2.302 2.634 3.716 1.537l3.936-3.05 3.935-3.05c1.413-1.097 1.118-3.322-.535-4.005l-4.594-1.902-4.595-1.9z" fill="#20F4A8"/><path d="M70 42.93c0 3.83 3.085 6.93 6.892 6.93 3.808 0 6.892-3.1 6.892-6.93 0-3.827-3.084-6.93-6.892-6.93C73.085 36 70 39.103 70 42.93z" stroke="#36E1FA" stroke-width="4.203"/><path d="M92 172.82c0 3.213 2.59 5.818 5.787 5.818 3.196 0 5.787-2.605 5.787-5.82 0-3.212-2.59-5.818-5.787-5.818-3.196 0-5.787 2.606-5.787 5.82z" stroke="#FFF" stroke-width="3.934"/></g><path d="M659.204 138.37l6.373.7c1.35.15 2.58-.842 2.727-2.2l.696-6.413c.148-1.36-.838-2.593-2.19-2.742l-6.374-.7c-1.35-.15-2.578.842-2.725 2.202l-.695 6.41c-.148 1.36.836 2.594 2.19 2.743" fill="#20F4A8"/><path d="M70.133 97.984l-1.87-6.168c-.395-1.31-1.784-2.054-3.086-1.655l-6.133 1.88c-1.3.4-2.04 1.797-1.645 3.105l1.87 6.17c.395 1.307 1.785 2.05 3.085 1.652l6.133-1.88c1.3-.398 2.042-1.795 1.645-3.103M654.133 63.984l-1.87-6.168c-.395-1.31-1.784-2.054-3.086-1.655l-6.133 1.88c-1.3.4-2.04 1.797-1.645 3.105l1.87 6.17c.395 1.307 1.785 2.05 3.085 1.652l6.133-1.88c1.3-.398 2.042-1.795 1.645-3.103" fill="#FFB6CA"/><path d="M591.133 127.984l-1.87-6.168c-.395-1.31-1.784-2.054-3.086-1.655l-6.133 1.88c-1.3.4-2.04 1.797-1.645 3.105l1.87 6.17c.395 1.307 1.785 2.05 3.085 1.652l6.133-1.88c1.3-.398 2.042-1.795 1.645-3.103" fill="#00CDFB"/><path d="M597.87 32.217c-1.995-.827-4.13.83-3.844 2.98l.797 5.982.796 5.982c.285 2.15 2.78 3.182 4.487 1.857l4.754-3.686 4.754-3.684c1.707-1.325 1.35-4.013-.646-4.84l-5.55-2.297-5.55-2.296z" fill="#20F4A8"/><path d="M633 2l2.576 12.085M641.442 7L628 9.316" stroke="#EDEDF4" stroke-width="3" stroke-linecap="round"/></g></svg>