<svg width="677" height="176" viewBox="0 0 677 176" fill="none" xmlns="http://www.w3.org/2000/svg">
<g opacity="0.6">
<mask id="path-1-inside-1_1456_2973" fill="white">
<path d="M0 4.61365C0 2.50263 1.71132 0.791307 3.82234 0.791307H672.732C674.844 0.791307 676.555 2.50263 676.555 4.61365V145.995C676.555 148.106 674.844 149.817 672.732 149.817H3.82232C1.7113 149.817 0 148.106 0 145.995V4.61365Z"/>
</mask>
<path d="M0 4.61365C0 2.50263 1.71132 0.791307 3.82234 0.791307H672.732C674.844 0.791307 676.555 2.50263 676.555 4.61365V145.995C676.555 148.106 674.844 149.817 672.732 149.817H3.82232C1.7113 149.817 0 148.106 0 145.995V4.61365Z" fill="#EBEBEB"/>
<path d="M0 4.61365C0 2.08042 2.05359 0.0268388 4.58681 0.0268388H671.968C674.501 0.0268388 676.555 2.08042 676.555 4.61365C676.555 2.92483 674.844 1.55578 672.732 1.55578H3.82234C1.71132 1.55578 0 2.92483 0 4.61365ZM676.555 145.995C676.555 148.528 674.501 150.582 671.968 150.582H4.58681C2.05359 150.582 0 148.528 0 145.995C0 147.684 1.71132 149.053 3.82234 149.053H672.732C674.844 149.053 676.555 147.684 676.555 145.995ZM0 149.817V0.791307V149.817ZM676.555 0.791307V149.817V0.791307Z" fill="#DDDDF5" mask="url(#path-1-inside-1_1456_2973)"/>
<path d="M31.8592 27.3706C31.244 27.3706 30.6932 27.4819 30.2069 27.7046C29.7264 27.9272 29.3192 28.2495 28.9852 28.6714C28.6512 29.0874 28.3963 29.5942 28.2206 30.1919C28.0448 30.7837 27.9569 31.4517 27.9569 32.1958C27.9569 33.1919 28.0975 34.0503 28.3788 34.771C28.66 35.4858 29.0877 36.0366 29.662 36.4233C30.2362 36.8042 30.9627 36.9946 31.8416 36.9946C32.3866 36.9946 32.9168 36.9419 33.4325 36.8364C33.9481 36.731 34.4813 36.5874 35.0321 36.4058V38.1987C34.5106 38.4038 33.9832 38.5532 33.45 38.647C32.9168 38.7407 32.3016 38.7876 31.6043 38.7876C30.2918 38.7876 29.202 38.5151 28.3348 37.9702C27.4735 37.4253 26.8289 36.6577 26.4012 35.6675C25.9793 34.6772 25.7684 33.5171 25.7684 32.187C25.7684 31.2144 25.9032 30.3237 26.1727 29.5151C26.4422 28.7065 26.8348 28.0093 27.3504 27.4233C27.8661 26.8315 28.5018 26.3774 29.2577 26.061C30.0194 25.7388 30.8895 25.5776 31.868 25.5776C32.5125 25.5776 33.1454 25.6509 33.7664 25.7974C34.3934 25.938 34.9735 26.1401 35.5067 26.4038L34.7684 28.144C34.3231 27.9331 33.8573 27.7515 33.3709 27.5991C32.8846 27.4468 32.3807 27.3706 31.8592 27.3706ZM46.1042 33.7251C46.1042 34.5337 45.9987 35.2515 45.7878 35.8784C45.5768 36.5054 45.2692 37.0356 44.8649 37.4692C44.4606 37.897 43.9743 38.2251 43.4059 38.4536C42.8376 38.6763 42.196 38.7876 41.4811 38.7876C40.8132 38.7876 40.2009 38.6763 39.6442 38.4536C39.0876 38.2251 38.6042 37.897 38.194 37.4692C37.7897 37.0356 37.4763 36.5054 37.2536 35.8784C37.0309 35.2515 36.9196 34.5337 36.9196 33.7251C36.9196 32.6528 37.1042 31.7446 37.4733 31.0005C37.8483 30.2505 38.3815 29.6792 39.0729 29.2866C39.7643 28.894 40.5876 28.6978 41.5427 28.6978C42.4391 28.6978 43.2302 28.894 43.9157 29.2866C44.6013 29.6792 45.1374 30.2505 45.5241 31.0005C45.9108 31.7505 46.1042 32.6587 46.1042 33.7251ZM39.0466 33.7251C39.0466 34.4341 39.1315 35.0405 39.3014 35.5444C39.4772 36.0483 39.7468 36.4351 40.11 36.7046C40.4733 36.9683 40.9421 37.1001 41.5163 37.1001C42.0905 37.1001 42.5593 36.9683 42.9225 36.7046C43.2858 36.4351 43.5524 36.0483 43.7223 35.5444C43.8923 35.0405 43.9772 34.4341 43.9772 33.7251C43.9772 33.0161 43.8923 32.4155 43.7223 31.9233C43.5524 31.4253 43.2858 31.0474 42.9225 30.7896C42.5593 30.5259 42.0876 30.394 41.5075 30.394C40.652 30.394 40.028 30.6812 39.6354 31.2554C39.2429 31.8296 39.0466 32.6528 39.0466 33.7251ZM50.4614 38.6118H48.3872V24.936H50.4614V38.6118ZM55.3988 38.6118H53.3246V24.936H55.3988V38.6118ZM62.1379 28.6978C63.0051 28.6978 63.7492 28.8765 64.3703 29.2339C64.9914 29.5913 65.4689 30.0981 65.8029 30.7544C66.1369 31.4106 66.3039 32.1958 66.3039 33.1099V34.2173H59.8088C59.8322 35.1606 60.0842 35.8872 60.5647 36.397C61.051 36.9067 61.7307 37.1616 62.6037 37.1616C63.2248 37.1616 63.7814 37.103 64.2736 36.9858C64.7717 36.8628 65.2844 36.6841 65.8117 36.4497V38.1284C65.3254 38.3569 64.8303 38.5239 64.3264 38.6294C63.8225 38.7349 63.2189 38.7876 62.5158 38.7876C61.5607 38.7876 60.7199 38.603 59.9934 38.2339C59.2727 37.8589 58.7072 37.3022 58.2971 36.564C57.8928 35.8257 57.6906 34.9087 57.6906 33.813C57.6906 32.7231 57.8752 31.7974 58.2443 31.0356C58.6135 30.2739 59.132 29.6939 59.8 29.2954C60.468 28.897 61.2473 28.6978 62.1379 28.6978ZM62.1379 30.2534C61.4875 30.2534 60.9602 30.4644 60.5559 30.8862C60.1574 31.3081 59.923 31.9263 59.8527 32.7407H64.2824C64.2766 32.2544 64.1945 31.8237 64.0363 31.4487C63.884 31.0737 63.6496 30.7808 63.3332 30.5698C63.0227 30.3589 62.6242 30.2534 62.1379 30.2534ZM72.4629 38.7876C71.543 38.7876 70.7461 38.6089 70.0723 38.2515C69.3985 37.894 68.8799 37.3462 68.5166 36.6079C68.1534 35.8696 67.9717 34.9321 67.9717 33.7954C67.9717 32.6118 68.1709 31.645 68.5694 30.895C68.9678 30.145 69.5186 29.5913 70.2217 29.2339C70.9307 28.8765 71.7422 28.6978 72.6563 28.6978C73.2364 28.6978 73.7608 28.7564 74.2295 28.8735C74.7041 28.9849 75.1055 29.1226 75.4336 29.2866L74.8184 30.939C74.461 30.7925 74.0948 30.6694 73.7198 30.5698C73.3448 30.4702 72.9844 30.4204 72.6387 30.4204C72.0704 30.4204 71.5957 30.5464 71.2149 30.7983C70.8399 31.0503 70.5586 31.4253 70.3711 31.9233C70.1895 32.4214 70.0987 33.0396 70.0987 33.7778C70.0987 34.4927 70.1924 35.0962 70.3799 35.5884C70.5674 36.0747 70.8457 36.4439 71.2149 36.6958C71.584 36.9419 72.0381 37.0649 72.5772 37.0649C73.1104 37.0649 73.5879 37.0005 74.0098 36.8716C74.4317 36.7427 74.8301 36.5757 75.2051 36.3706V38.1636C74.836 38.3745 74.4405 38.5298 74.0186 38.6294C73.5967 38.7349 73.0782 38.7876 72.4629 38.7876ZM81.0214 37.1177C81.2909 37.1177 81.5575 37.0942 81.8212 37.0474C82.0848 36.9946 82.3251 36.9331 82.5419 36.8628V38.4272C82.3134 38.5269 82.0175 38.6118 81.6542 38.6821C81.2909 38.7524 80.913 38.7876 80.5204 38.7876C79.9696 38.7876 79.4745 38.6968 79.035 38.5151C78.5956 38.3276 78.247 38.0083 77.9891 37.5571C77.7313 37.106 77.6024 36.4819 77.6024 35.6851V30.4556H76.2753V29.5327L77.6991 28.8032L78.3759 26.7202H79.6766V28.8823H82.4628V30.4556H79.6766V35.6587C79.6766 36.1509 79.7997 36.5171 80.0458 36.7573C80.2919 36.9976 80.6171 37.1177 81.0214 37.1177ZM86.4948 28.8823V38.6118H84.4294V28.8823H86.4948ZM85.4753 25.1558C85.7917 25.1558 86.0642 25.2407 86.2927 25.4106C86.5271 25.5806 86.6443 25.8735 86.6443 26.2896C86.6443 26.6997 86.5271 26.9927 86.2927 27.1685C86.0642 27.3384 85.7917 27.4233 85.4753 27.4233C85.1472 27.4233 84.8689 27.3384 84.6404 27.1685C84.4177 26.9927 84.3064 26.6997 84.3064 26.2896C84.3064 25.8735 84.4177 25.5806 84.6404 25.4106C84.8689 25.2407 85.1472 25.1558 85.4753 25.1558ZM97.98 33.7251C97.98 34.5337 97.8746 35.2515 97.6636 35.8784C97.4527 36.5054 97.1451 37.0356 96.7408 37.4692C96.3365 37.897 95.8502 38.2251 95.2818 38.4536C94.7134 38.6763 94.0718 38.7876 93.357 38.7876C92.689 38.7876 92.0767 38.6763 91.5201 38.4536C90.9634 38.2251 90.48 37.897 90.0699 37.4692C89.6656 37.0356 89.3521 36.5054 89.1295 35.8784C88.9068 35.2515 88.7955 34.5337 88.7955 33.7251C88.7955 32.6528 88.98 31.7446 89.3492 31.0005C89.7242 30.2505 90.2574 29.6792 90.9488 29.2866C91.6402 28.894 92.4634 28.6978 93.4185 28.6978C94.315 28.6978 95.106 28.894 95.7916 29.2866C96.4771 29.6792 97.0132 30.2505 97.4 31.0005C97.7867 31.7505 97.98 32.6587 97.98 33.7251ZM90.9224 33.7251C90.9224 34.4341 91.0074 35.0405 91.1773 35.5444C91.3531 36.0483 91.6226 36.4351 91.9859 36.7046C92.3492 36.9683 92.8179 37.1001 93.3922 37.1001C93.9664 37.1001 94.4351 36.9683 94.7984 36.7046C95.1617 36.4351 95.4283 36.0483 95.5982 35.5444C95.7681 35.0405 95.8531 34.4341 95.8531 33.7251C95.8531 33.0161 95.7681 32.4155 95.5982 31.9233C95.4283 31.4253 95.1617 31.0474 94.7984 30.7896C94.4351 30.5259 93.9634 30.394 93.3834 30.394C92.5279 30.394 91.9039 30.6812 91.5113 31.2554C91.1187 31.8296 90.9224 32.6528 90.9224 33.7251ZM105.334 28.6978C106.43 28.6978 107.283 28.9819 107.892 29.5503C108.507 30.1128 108.815 31.0181 108.815 32.2661V38.6118H106.749V32.6528C106.749 31.897 106.594 31.3315 106.284 30.9565C105.973 30.5757 105.493 30.3853 104.842 30.3853C103.899 30.3853 103.243 30.6753 102.873 31.2554C102.51 31.8355 102.329 32.6763 102.329 33.7778V38.6118H100.263V28.8823H101.871L102.162 30.2007H102.276C102.487 29.8608 102.747 29.5825 103.058 29.3657C103.374 29.1431 103.726 28.9761 104.113 28.8647C104.505 28.7534 104.913 28.6978 105.334 28.6978Z" fill="#AAAAAA"/>
<g clip-path="url(#clip0_1456_2973)">
<path d="M471.194 35.8202H464.837C464.546 35.8202 464.307 35.5818 464.307 35.2904V28.9332C464.307 28.6419 464.546 28.4035 464.837 28.4035H467.486C467.777 28.4035 468.016 28.1651 468.016 27.8737C468.016 27.5823 467.777 27.3439 467.486 27.3439H464.307C463.719 27.3439 463.248 27.8207 463.248 28.4035V35.8202C463.248 36.4029 463.725 36.8797 464.307 36.8797H471.724C472.307 36.8797 472.784 36.4029 472.784 35.8202V32.6416C472.784 32.3502 472.545 32.1118 472.254 32.1118C471.963 32.1118 471.724 32.3502 471.724 32.6416V35.2904C471.724 35.5818 471.486 35.8202 471.194 35.8202ZM469.075 27.8737C469.075 28.1651 469.314 28.4035 469.605 28.4035H470.977L466.14 33.2402C465.934 33.4468 465.934 33.7806 466.14 33.9872C466.347 34.1938 466.681 34.1938 466.887 33.9872L471.724 29.1504V30.5225C471.724 30.8139 471.963 31.0523 472.254 31.0523C472.545 31.0523 472.784 30.8139 472.784 30.5225V27.8737C472.784 27.5823 472.545 27.3439 472.254 27.3439H469.605C469.314 27.3439 469.075 27.5823 469.075 27.8737Z" fill="#F65077"/>
</g>
<g clip-path="url(#clip1_1456_2973)">
<path d="M506.688 32.6416V35.2904C506.688 35.5818 506.45 35.8202 506.159 35.8202H499.802C499.51 35.8202 499.272 35.5818 499.272 35.2904V32.6416C499.272 32.3502 499.033 32.1118 498.742 32.1118C498.451 32.1118 498.212 32.3502 498.212 32.6416V35.8202C498.212 36.4029 498.689 36.8797 499.272 36.8797H506.688C507.271 36.8797 507.748 36.4029 507.748 35.8202V32.6416C507.748 32.3502 507.51 32.1118 507.218 32.1118C506.927 32.1118 506.688 32.3502 506.688 32.6416ZM503.51 32.4668L504.506 31.4708C504.712 31.2642 505.046 31.2642 505.253 31.4708C505.459 31.6774 505.459 32.0112 505.253 32.2178L503.351 34.1196C503.144 34.3262 502.811 34.3262 502.604 34.1196L500.702 32.2178C500.496 32.0112 500.496 31.6774 500.702 31.4708C500.909 31.2642 501.243 31.2642 501.449 31.4708L502.45 32.4668V27.8737C502.45 27.5823 502.689 27.344 502.98 27.344C503.272 27.344 503.51 27.5823 503.51 27.8737V32.4668Z" fill="#F65077"/>
</g>
<g clip-path="url(#clip2_1456_2973)">
<path d="M543.657 26.7807L541.569 26.878C541.329 26.8892 541.223 27.1791 541.399 27.3397L542.1 27.9783L537.106 33.4611C536.909 33.6765 536.925 34.0133 537.14 34.2095C537.356 34.4057 537.693 34.39 537.889 34.1746L542.883 28.6918L543.584 29.3304C543.761 29.4909 544.039 29.3579 544.025 29.1223L543.927 27.0343C543.924 26.8882 543.799 26.7741 543.657 26.7807Z" fill="#F65077"/>
<path d="M540.179 37.443L542.267 37.3456C542.506 37.3345 542.613 37.0445 542.436 36.884L541.735 36.2454L546.73 30.7625C546.926 30.5471 546.91 30.2103 546.695 30.0141C546.48 29.8179 546.143 29.8336 545.947 30.049L540.952 35.5319L540.251 34.8933C540.075 34.7328 539.796 34.8658 539.811 35.1013L539.908 37.1893C539.911 37.3354 540.037 37.4496 540.179 37.443Z" fill="#F65077"/>
</g>
<g clip-path="url(#clip3_1456_2973)">
<path d="M579.531 29.463H577.942C577.65 29.463 577.412 29.7014 577.412 29.9928C577.412 30.2841 577.65 30.5225 577.942 30.5225H579.531C580.405 30.5225 581.12 31.2377 581.12 32.1118C581.12 32.9859 580.405 33.7011 579.531 33.7011H577.942C577.65 33.7011 577.412 33.9395 577.412 34.2309C577.412 34.5222 577.65 34.7606 577.942 34.7606H579.531C580.993 34.7606 582.18 33.574 582.18 32.1118C582.18 30.6497 580.993 29.463 579.531 29.463ZM574.763 32.1118C574.763 32.4032 575.001 32.6416 575.293 32.6416H578.471C578.763 32.6416 579.001 32.4032 579.001 32.1118C579.001 31.8205 578.763 31.5821 578.471 31.5821H575.293C575.001 31.5821 574.763 31.8205 574.763 32.1118ZM575.823 33.7011H574.233C573.359 33.7011 572.644 32.9859 572.644 32.1118C572.644 31.2377 573.359 30.5225 574.233 30.5225H575.823C576.114 30.5225 576.352 30.2841 576.352 29.9928C576.352 29.7014 576.114 29.463 575.823 29.463H574.233C572.771 29.463 571.584 30.6497 571.584 32.1118C571.584 33.574 572.771 34.7606 574.233 34.7606H575.823C576.114 34.7606 576.352 34.5222 576.352 34.2309C576.352 33.9395 576.114 33.7011 575.823 33.7011Z" fill="#F65077"/>
</g>
<g clip-path="url(#clip4_1456_2973)">
<path d="M614.495 27.344H609.198C608.615 27.344 608.138 27.8207 608.138 28.4035V36.8797L611.847 35.2904L615.555 36.8797V28.4035C615.555 27.8207 615.078 27.344 614.495 27.344Z" fill="#F65077"/>
</g>
<g clip-path="url(#clip5_1456_2973)">
<path d="M650.784 29.9928C651.367 29.9928 651.844 29.516 651.844 28.9332C651.844 28.3505 651.367 27.8737 650.784 27.8737C650.201 27.8737 649.725 28.3505 649.725 28.9332C649.725 29.516 650.201 29.9928 650.784 29.9928ZM650.784 31.0523C650.201 31.0523 649.725 31.5291 649.725 32.1118C649.725 32.6946 650.201 33.1713 650.784 33.1713C651.367 33.1713 651.844 32.6946 651.844 32.1118C651.844 31.5291 651.367 31.0523 650.784 31.0523ZM650.784 34.2309C650.201 34.2309 649.725 34.7077 649.725 35.2904C649.725 35.8731 650.201 36.3499 650.784 36.3499C651.367 36.3499 651.844 35.8731 651.844 35.2904C651.844 34.7077 651.367 34.2309 650.784 34.2309Z" fill="#F65077"/>
</g>
<g filter="url(#filter0_d_1456_2973)">
<rect x="24.463" y="57.3165" width="202.075" height="74.1535" rx="3.82234" fill="white"/>
</g>
<g filter="url(#filter1_d_1456_2973)">
<rect x="238.769" y="57.3165" width="202.075" height="74.1535" rx="3.82234" fill="white"/>
</g>
<g filter="url(#filter2_d_1456_2973)">
<rect x="453.075" y="57.3165" width="202.075" height="74.1535" rx="3.82234" fill="white"/>
</g>
<g filter="url(#filter3_d_1456_2973)">
<g clip-path="url(#clip6_1456_2973)">
<rect width="3.82484" height="3.82384" transform="matrix(0.707107 0.707107 0.707107 -0.707107 608.704 44.0181)" fill="#F65077"/>
</g>
<rect x="577.938" y="44.0188" width="66.1736" height="29.2315" rx="3.82234" fill="#F65077"/>
<path d="M586.225 55.1998L583.706 62.1345H582.677L585.577 54.5257H586.241L586.225 55.1998ZM588.336 62.1345L585.812 55.1998L585.797 54.5257H586.46L589.371 62.1345H588.336ZM588.206 59.3178V60.1435H583.931V59.3178H588.206ZM593.808 61.0371V54.1076H594.78V62.1345H593.891L593.808 61.0371ZM590.003 59.37V59.2603C590.003 58.8283 590.056 58.4363 590.16 58.0845C590.268 57.7291 590.42 57.4243 590.615 57.1699C590.813 56.9156 591.049 56.7205 591.32 56.5846C591.596 56.4453 591.902 56.3756 592.24 56.3756C592.595 56.3756 592.906 56.4383 593.17 56.5637C593.439 56.6857 593.665 56.8651 593.85 57.102C594.038 57.3354 594.186 57.6176 594.294 57.9486C594.402 58.2796 594.477 58.6541 594.519 59.0722V59.5529C594.48 59.9675 594.405 60.3403 594.294 60.6713C594.186 61.0022 594.038 61.2844 593.85 61.5179C593.665 61.7513 593.439 61.9307 593.17 62.0561C592.902 62.1781 592.588 62.239 592.23 62.239C591.899 62.239 591.596 62.1676 591.32 62.0248C591.049 61.8819 590.813 61.6816 590.615 61.4238C590.42 61.166 590.268 60.8629 590.16 60.5145C590.056 60.1626 590.003 59.7811 590.003 59.37ZM590.975 59.2603V59.37C590.975 59.6522 591.003 59.917 591.059 60.1644C591.118 60.4117 591.209 60.6295 591.331 60.8176C591.453 61.0057 591.608 61.1538 591.796 61.2618C591.984 61.3663 592.209 61.4186 592.47 61.4186C592.791 61.4186 593.054 61.3506 593.259 61.2148C593.468 61.0789 593.635 60.8995 593.761 60.6765C593.886 60.4535 593.984 60.2114 594.053 59.9501V58.6907C594.012 58.499 593.951 58.3144 593.871 58.1367C593.794 57.9556 593.693 57.7953 593.567 57.6559C593.446 57.5131 593.294 57.3999 593.113 57.3163C592.935 57.2326 592.724 57.1908 592.48 57.1908C592.216 57.1908 591.987 57.2466 591.796 57.3581C591.608 57.4661 591.453 57.6159 591.331 57.8075C591.209 57.9956 591.118 58.2151 591.059 58.466C591.003 58.7133 590.975 58.9781 590.975 59.2603ZM599.849 61.0371V54.1076H600.821V62.1345H599.933L599.849 61.0371ZM596.045 59.37V59.2603C596.045 58.8283 596.097 58.4363 596.201 58.0845C596.309 57.7291 596.461 57.4243 596.656 57.1699C596.855 56.9156 597.09 56.7205 597.361 56.5846C597.637 56.4453 597.943 56.3756 598.281 56.3756C598.637 56.3756 598.947 56.4383 599.211 56.5637C599.48 56.6857 599.706 56.8651 599.891 57.102C600.079 57.3354 600.227 57.6176 600.335 57.9486C600.443 58.2796 600.518 58.6541 600.56 59.0722V59.5529C600.521 59.9675 600.446 60.3403 600.335 60.6713C600.227 61.0022 600.079 61.2844 599.891 61.5179C599.706 61.7513 599.48 61.9307 599.211 62.0561C598.943 62.1781 598.63 62.239 598.271 62.239C597.94 62.239 597.637 62.1676 597.361 62.0248C597.09 61.8819 596.855 61.6816 596.656 61.4238C596.461 61.166 596.309 60.8629 596.201 60.5145C596.097 60.1626 596.045 59.7811 596.045 59.37ZM597.017 59.2603V59.37C597.017 59.6522 597.044 59.917 597.1 60.1644C597.159 60.4117 597.25 60.6295 597.372 60.8176C597.494 61.0057 597.649 61.1538 597.837 61.2618C598.025 61.3663 598.25 61.4186 598.511 61.4186C598.832 61.4186 599.095 61.3506 599.3 61.2148C599.509 61.0789 599.676 60.8995 599.802 60.6765C599.927 60.4535 600.025 60.2114 600.095 59.9501V58.6907C600.053 58.499 599.992 58.3144 599.912 58.1367C599.835 57.9556 599.734 57.7953 599.609 57.6559C599.487 57.5131 599.335 57.3999 599.154 57.3163C598.976 57.2326 598.765 57.1908 598.522 57.1908C598.257 57.1908 598.029 57.2466 597.837 57.3581C597.649 57.4661 597.494 57.6159 597.372 57.8075C597.25 57.9956 597.159 58.2151 597.1 58.466C597.044 58.7133 597.017 58.9781 597.017 59.2603ZM607.348 56.4801V57.2222H604.291V56.4801H607.348ZM605.326 55.1057H606.292V60.734C606.292 60.9256 606.322 61.0702 606.381 61.1677C606.44 61.2653 606.517 61.3297 606.611 61.3611C606.705 61.3924 606.806 61.4081 606.914 61.4081C606.994 61.4081 607.078 61.4011 607.165 61.3872C607.256 61.3698 607.324 61.3559 607.369 61.3454L607.374 62.1345C607.298 62.1589 607.196 62.1815 607.071 62.2024C606.949 62.2268 606.801 62.239 606.627 62.239C606.39 62.239 606.172 62.192 605.974 62.0979C605.775 62.0039 605.617 61.8471 605.498 61.6276C605.383 61.4046 605.326 61.105 605.326 60.7287V55.1057ZM608.121 59.37V59.2498C608.121 58.8422 608.181 58.4642 608.299 58.1158C608.418 57.7639 608.588 57.4591 608.811 57.2013C609.034 56.94 609.304 56.7379 609.621 56.5951C609.938 56.4488 610.294 56.3756 610.687 56.3756C611.085 56.3756 611.442 56.4488 611.759 56.5951C612.079 56.7379 612.351 56.94 612.574 57.2013C612.8 57.4591 612.973 57.7639 613.091 58.1158C613.21 58.4642 613.269 58.8422 613.269 59.2498V59.37C613.269 59.7776 613.21 60.1556 613.091 60.504C612.973 60.8524 612.8 61.1573 612.574 61.4186C612.351 61.6764 612.081 61.8784 611.764 62.0248C611.45 62.1676 611.095 62.239 610.698 62.239C610.301 62.239 609.944 62.1676 609.627 62.0248C609.309 61.8784 609.038 61.6764 608.811 61.4186C608.588 61.1573 608.418 60.8524 608.299 60.504C608.181 60.1556 608.121 59.7776 608.121 59.37ZM609.088 59.2498V59.37C609.088 59.6522 609.121 59.9187 609.188 60.1696C609.254 60.4169 609.353 60.6364 609.485 60.828C609.621 61.0197 609.79 61.1712 609.992 61.2827C610.194 61.3907 610.43 61.4447 610.698 61.4447C610.963 61.4447 611.194 61.3907 611.393 61.2827C611.595 61.1712 611.762 61.0197 611.895 60.828C612.027 60.6364 612.126 60.4169 612.192 60.1696C612.262 59.9187 612.297 59.6522 612.297 59.37V59.2498C612.297 58.9711 612.262 58.7081 612.192 58.4607C612.126 58.2099 612.025 57.9887 611.889 57.797C611.757 57.6019 611.59 57.4487 611.388 57.3372C611.189 57.2257 610.956 57.1699 610.687 57.1699C610.423 57.1699 610.189 57.2257 609.987 57.3372C609.789 57.4487 609.621 57.6019 609.485 57.797C609.353 57.9887 609.254 58.2099 609.188 58.4607C609.121 58.7081 609.088 58.9711 609.088 59.2498ZM623.135 54.5257V62.1345H622.122L618.291 56.2659V62.1345H617.282V54.5257H618.291L622.137 60.41V54.5257H623.135ZM627.123 62.239C626.729 62.239 626.372 62.1728 626.051 62.0404C625.734 61.9046 625.461 61.7147 625.231 61.4708C625.004 61.2269 624.83 60.9378 624.708 60.6033C624.586 60.2689 624.525 59.9031 624.525 59.5059V59.2864C624.525 58.8265 624.593 58.4172 624.729 58.0583C624.865 57.696 625.05 57.3894 625.283 57.1386C625.517 56.8877 625.781 56.6979 626.078 56.569C626.374 56.4401 626.68 56.3756 626.997 56.3756C627.401 56.3756 627.75 56.4453 628.042 56.5846C628.339 56.724 628.581 56.9191 628.769 57.1699C628.957 57.4173 629.096 57.7099 629.187 58.0479C629.277 58.3823 629.323 58.7481 629.323 59.1453V59.5791H625.1V58.79H628.356V58.7168C628.342 58.466 628.29 58.2221 628.199 57.9852C628.112 57.7483 627.973 57.5532 627.781 57.3999C627.59 57.2466 627.328 57.1699 626.997 57.1699C626.778 57.1699 626.576 57.217 626.391 57.311C626.206 57.4016 626.048 57.5375 625.916 57.7187C625.783 57.8998 625.68 58.121 625.607 58.3823C625.534 58.6436 625.497 58.945 625.497 59.2864V59.5059C625.497 59.7742 625.534 60.0267 625.607 60.2636C625.684 60.4971 625.794 60.7026 625.936 60.8803C626.083 61.058 626.259 61.1973 626.464 61.2984C626.673 61.3994 626.91 61.4499 627.175 61.4499C627.516 61.4499 627.806 61.3802 628.042 61.2409C628.279 61.1015 628.487 60.9151 628.664 60.6817L629.25 61.1468C629.128 61.3315 628.973 61.5074 628.785 61.6746C628.596 61.8419 628.365 61.9777 628.089 62.0822C627.818 62.1868 627.495 62.239 627.123 62.239ZM631.105 56.4801L632.343 58.5391L633.598 56.4801H634.732L632.882 59.2707L634.789 62.1345H633.671L632.364 60.0128L631.058 62.1345H629.934L631.836 59.2707L629.992 56.4801H631.105ZM638.128 56.4801V57.2222H635.071V56.4801H638.128ZM636.106 55.1057H637.073V60.734C637.073 60.9256 637.102 61.0702 637.162 61.1677C637.221 61.2653 637.297 61.3297 637.392 61.3611C637.486 61.3924 637.587 61.4081 637.695 61.4081C637.775 61.4081 637.858 61.4011 637.945 61.3872C638.036 61.3698 638.104 61.3559 638.149 61.3454L638.154 62.1345C638.078 62.1589 637.977 62.1815 637.851 62.2024C637.729 62.2268 637.581 62.239 637.407 62.239C637.17 62.239 636.953 62.192 636.754 62.0979C636.555 62.0039 636.397 61.8471 636.278 61.6276C636.163 61.4046 636.106 61.105 636.106 60.7287V55.1057Z" fill="white"/>
</g>
<circle cx="128.116" cy="127.087" r="6.11575" fill="#AAAAAA"/>
<g clip-path="url(#clip7_1456_2973)">
<rect width="6.9464" height="6.9464" transform="translate(124.643 123.614)" fill="#AAAAAA"/>
<path d="M129.563 125.64H128.695C128.536 125.64 128.406 125.771 128.406 125.93C128.406 126.089 128.536 126.219 128.695 126.219H129.563C130.041 126.219 130.432 126.61 130.432 127.087C130.432 127.565 130.041 127.956 129.563 127.956H128.695C128.536 127.956 128.406 128.086 128.406 128.245C128.406 128.404 128.536 128.535 128.695 128.535H129.563C130.362 128.535 131.011 127.886 131.011 127.087C131.011 126.289 130.362 125.64 129.563 125.64ZM126.959 127.087C126.959 127.247 127.089 127.377 127.248 127.377H128.985C129.144 127.377 129.274 127.247 129.274 127.087C129.274 126.928 129.144 126.798 128.985 126.798H127.248C127.089 126.798 126.959 126.928 126.959 127.087ZM127.537 127.956H126.669C126.192 127.956 125.801 127.565 125.801 127.087C125.801 126.61 126.192 126.219 126.669 126.219H127.537C127.697 126.219 127.827 126.089 127.827 125.93C127.827 125.771 127.697 125.64 127.537 125.64H126.669C125.87 125.64 125.222 126.289 125.222 127.087C125.222 127.886 125.87 128.535 126.669 128.535H127.537C127.697 128.535 127.827 128.404 127.827 128.245C127.827 128.086 127.697 127.956 127.537 127.956Z" fill="white"/>
</g>
<circle cx="160.224" cy="127.087" r="6.11575" fill="#F65077"/>
<g clip-path="url(#clip8_1456_2973)">
<path d="M161.671 124.483H158.777C158.458 124.483 158.198 124.743 158.198 125.061V129.692L160.224 128.824L162.25 129.692V125.061C162.25 124.743 161.989 124.483 161.671 124.483Z" fill="white"/>
</g>
<circle cx="192.331" cy="127.087" r="6.11575" fill="#F65077"/>
<g clip-path="url(#clip9_1456_2973)">
<path d="M193.2 123.904H190.016C189.698 123.904 189.437 124.164 189.437 124.483V128.245C189.437 128.404 189.567 128.535 189.726 128.535C189.886 128.535 190.016 128.404 190.016 128.245V124.772C190.016 124.613 190.146 124.483 190.305 124.483H193.2C193.359 124.483 193.489 124.352 193.489 124.193C193.489 124.034 193.359 123.904 193.2 123.904ZM194.357 125.061H191.174C190.855 125.061 190.595 125.322 190.595 125.64V129.692C190.595 130.011 190.855 130.271 191.174 130.271H194.357C194.676 130.271 194.936 130.011 194.936 129.692V125.64C194.936 125.322 194.676 125.061 194.357 125.061ZM194.068 129.692H191.463C191.304 129.692 191.174 129.562 191.174 129.403V125.93C191.174 125.771 191.304 125.64 191.463 125.64H194.068C194.227 125.64 194.357 125.771 194.357 125.93V129.403C194.357 129.562 194.227 129.692 194.068 129.692Z" fill="white"/>
</g>
<circle cx="224.439" cy="127.087" r="6.11575" fill="#F65077"/>
<g clip-path="url(#clip10_1456_2973)">
<path d="M221.834 128.668V129.548C221.834 129.629 221.898 129.692 221.979 129.692H222.859C222.897 129.692 222.934 129.678 222.96 129.649L226.121 126.491L225.035 125.406L221.878 128.564C221.849 128.592 221.834 128.627 221.834 128.668ZM226.96 125.652C227.073 125.539 227.073 125.357 226.96 125.244L226.283 124.566C226.17 124.454 225.988 124.454 225.875 124.566L225.345 125.096L226.431 126.181L226.96 125.652V125.652Z" fill="white"/>
</g>
<circle cx="225.333" cy="56.3296" r="6.11575" fill="#AAAAAA"/>
<g clip-path="url(#clip11_1456_2973)">
<rect width="8.33568" height="8.33568" transform="translate(221.165 52.1624)" fill="#AAAAAA"/>
<path d="M227.521 54.1455C227.386 54.0101 227.167 54.0101 227.032 54.1455L225.333 55.8405L223.635 54.1421C223.499 54.0066 223.281 54.0066 223.145 54.1421C223.01 54.2775 223.01 54.4963 223.145 54.6318L224.844 56.3302L223.145 58.0286C223.01 58.164 223.01 58.3828 223.145 58.5183C223.281 58.6538 223.499 58.6538 223.635 58.5183L225.333 56.8199L227.032 58.5183C227.167 58.6538 227.386 58.6538 227.521 58.5183C227.657 58.3828 227.657 58.164 227.521 58.0286L225.823 56.3302L227.521 54.6318C227.653 54.4998 227.653 54.2775 227.521 54.1455V54.1455Z" fill="white"/>
</g>
<g style="mix-blend-mode:color">
<rect y="1" width="677" height="149" fill="#D9D9D9"/>
</g>
</g>
<g filter="url(#filter4_d_1456_2973)">
<g clip-path="url(#clip12_1456_2973)">
<rect width="3.82484" height="3.82384" transform="matrix(0.707107 0.707107 0.707107 -0.707107 157.571 139.07)" fill="#ACACAC"/>
</g>
<rect x="126.806" y="139.071" width="66.1736" height="29.2315" rx="3.82234" fill="#ACACAC"/>
<path d="M135.093 150.252L132.574 157.187H131.544L134.445 149.578H135.108L135.093 150.252ZM137.204 157.187L134.68 150.252L134.664 149.578H135.328L138.239 157.187H137.204ZM137.073 154.37V155.196H132.798V154.37H137.073ZM142.675 156.089V149.16H143.647V157.187H142.759L142.675 156.089ZM138.871 154.422V154.313C138.871 153.881 138.923 153.489 139.028 153.137C139.136 152.781 139.287 152.477 139.482 152.222C139.681 151.968 139.916 151.773 140.188 151.637C140.463 151.498 140.77 151.428 141.108 151.428C141.463 151.428 141.773 151.491 142.038 151.616C142.306 151.738 142.532 151.917 142.717 152.154C142.905 152.388 143.053 152.67 143.161 153.001C143.269 153.332 143.344 153.706 143.386 154.124V154.605C143.348 155.02 143.273 155.393 143.161 155.724C143.053 156.055 142.905 156.337 142.717 156.57C142.532 156.804 142.306 156.983 142.038 157.108C141.77 157.23 141.456 157.291 141.097 157.291C140.766 157.291 140.463 157.22 140.188 157.077C139.916 156.934 139.681 156.734 139.482 156.476C139.287 156.218 139.136 155.915 139.028 155.567C138.923 155.215 138.871 154.833 138.871 154.422ZM139.843 154.313V154.422C139.843 154.705 139.871 154.969 139.927 155.217C139.986 155.464 140.076 155.682 140.198 155.87C140.32 156.058 140.475 156.206 140.663 156.314C140.852 156.419 141.076 156.471 141.338 156.471C141.658 156.471 141.921 156.403 142.127 156.267C142.336 156.131 142.503 155.952 142.628 155.729C142.754 155.506 142.851 155.264 142.921 155.002V153.743C142.879 153.551 142.818 153.367 142.738 153.189C142.661 153.008 142.56 152.848 142.435 152.708C142.313 152.565 142.161 152.452 141.98 152.369C141.803 152.285 141.592 152.243 141.348 152.243C141.083 152.243 140.855 152.299 140.663 152.41C140.475 152.518 140.32 152.668 140.198 152.86C140.076 153.048 139.986 153.267 139.927 153.518C139.871 153.766 139.843 154.03 139.843 154.313ZM148.716 156.089V149.16H149.688V157.187H148.8L148.716 156.089ZM144.912 154.422V154.313C144.912 153.881 144.964 153.489 145.069 153.137C145.177 152.781 145.328 152.477 145.523 152.222C145.722 151.968 145.957 151.773 146.229 151.637C146.504 151.498 146.811 151.428 147.149 151.428C147.504 151.428 147.814 151.491 148.079 151.616C148.347 151.738 148.574 151.917 148.758 152.154C148.946 152.388 149.094 152.67 149.202 153.001C149.31 153.332 149.385 153.706 149.427 154.124V154.605C149.389 155.02 149.314 155.393 149.202 155.724C149.094 156.055 148.946 156.337 148.758 156.57C148.574 156.804 148.347 156.983 148.079 157.108C147.811 157.23 147.497 157.291 147.138 157.291C146.807 157.291 146.504 157.22 146.229 157.077C145.957 156.934 145.722 156.734 145.523 156.476C145.328 156.218 145.177 155.915 145.069 155.567C144.964 155.215 144.912 154.833 144.912 154.422ZM145.884 154.313V154.422C145.884 154.705 145.912 154.969 145.968 155.217C146.027 155.464 146.117 155.682 146.239 155.87C146.361 156.058 146.516 156.206 146.704 156.314C146.893 156.419 147.117 156.471 147.379 156.471C147.699 156.471 147.962 156.403 148.168 156.267C148.377 156.131 148.544 155.952 148.669 155.729C148.795 155.506 148.892 155.264 148.962 155.002V153.743C148.92 153.551 148.859 153.367 148.779 153.189C148.702 153.008 148.601 152.848 148.476 152.708C148.354 152.565 148.203 152.452 148.021 152.369C147.844 152.285 147.633 152.243 147.389 152.243C147.124 152.243 146.896 152.299 146.704 152.41C146.516 152.518 146.361 152.668 146.239 152.86C146.117 153.048 146.027 153.267 145.968 153.518C145.912 153.766 145.884 154.03 145.884 154.313ZM156.216 151.532V152.275H153.158V151.532H156.216ZM154.193 150.158H155.16V155.786C155.16 155.978 155.19 156.122 155.249 156.22C155.308 156.318 155.385 156.382 155.479 156.413C155.573 156.445 155.674 156.46 155.782 156.46C155.862 156.46 155.946 156.453 156.033 156.44C156.123 156.422 156.191 156.408 156.236 156.398L156.242 157.187C156.165 157.211 156.064 157.234 155.939 157.255C155.817 157.279 155.669 157.291 155.494 157.291C155.257 157.291 155.04 157.244 154.841 157.15C154.643 157.056 154.484 156.899 154.366 156.68C154.251 156.457 154.193 156.157 154.193 155.781V150.158ZM156.989 154.422V154.302C156.989 153.895 157.048 153.517 157.167 153.168C157.285 152.816 157.456 152.511 157.679 152.254C157.902 151.992 158.172 151.79 158.489 151.647C158.806 151.501 159.161 151.428 159.555 151.428C159.952 151.428 160.309 151.501 160.626 151.647C160.947 151.79 161.218 151.992 161.441 152.254C161.668 152.511 161.84 152.816 161.959 153.168C162.077 153.517 162.136 153.895 162.136 154.302V154.422C162.136 154.83 162.077 155.208 161.959 155.556C161.84 155.905 161.668 156.21 161.441 156.471C161.218 156.729 160.948 156.931 160.631 157.077C160.318 157.22 159.962 157.291 159.565 157.291C159.168 157.291 158.811 157.22 158.494 157.077C158.177 156.931 157.905 156.729 157.679 156.471C157.456 156.21 157.285 155.905 157.167 155.556C157.048 155.208 156.989 154.83 156.989 154.422ZM157.956 154.302V154.422C157.956 154.705 157.989 154.971 158.055 155.222C158.121 155.469 158.221 155.689 158.353 155.88C158.489 156.072 158.658 156.224 158.86 156.335C159.062 156.443 159.297 156.497 159.565 156.497C159.83 156.497 160.062 156.443 160.26 156.335C160.462 156.224 160.63 156.072 160.762 155.88C160.894 155.689 160.994 155.469 161.06 155.222C161.13 154.971 161.164 154.705 161.164 154.422V154.302C161.164 154.023 161.13 153.76 161.06 153.513C160.994 153.262 160.893 153.041 160.757 152.849C160.624 152.654 160.457 152.501 160.255 152.389C160.057 152.278 159.823 152.222 159.555 152.222C159.29 152.222 159.057 152.278 158.855 152.389C158.656 152.501 158.489 152.654 158.353 152.849C158.221 153.041 158.121 153.262 158.055 153.513C157.989 153.76 157.956 154.023 157.956 154.302ZM172.003 149.578V157.187H170.989L167.158 151.318V157.187H166.15V149.578H167.158L171.005 155.462V149.578H172.003ZM175.99 157.291C175.597 157.291 175.239 157.225 174.919 157.093C174.602 156.957 174.328 156.767 174.098 156.523C173.872 156.279 173.698 155.99 173.576 155.656C173.454 155.321 173.393 154.955 173.393 154.558V154.339C173.393 153.879 173.461 153.469 173.597 153.111C173.733 152.748 173.917 152.442 174.151 152.191C174.384 151.94 174.649 151.75 174.945 151.621C175.241 151.492 175.548 151.428 175.865 151.428C176.269 151.428 176.617 151.498 176.91 151.637C177.206 151.776 177.448 151.971 177.636 152.222C177.824 152.47 177.964 152.762 178.054 153.1C178.145 153.435 178.19 153.8 178.19 154.198V154.631H173.968V153.842H177.223V153.769C177.21 153.518 177.157 153.274 177.067 153.037C176.98 152.801 176.84 152.605 176.649 152.452C176.457 152.299 176.196 152.222 175.865 152.222C175.645 152.222 175.443 152.269 175.259 152.363C175.074 152.454 174.915 152.59 174.783 152.771C174.651 152.952 174.548 153.173 174.475 153.435C174.402 153.696 174.365 153.997 174.365 154.339V154.558C174.365 154.826 174.402 155.079 174.475 155.316C174.551 155.549 174.661 155.755 174.804 155.933C174.95 156.11 175.126 156.25 175.332 156.351C175.541 156.452 175.778 156.502 176.042 156.502C176.384 156.502 176.673 156.433 176.91 156.293C177.147 156.154 177.354 155.967 177.532 155.734L178.117 156.199C177.995 156.384 177.84 156.56 177.652 156.727C177.464 156.894 177.232 157.03 176.957 157.135C176.685 157.239 176.363 157.291 175.99 157.291ZM179.972 151.532L181.211 153.591L182.465 151.532H183.599L181.749 154.323L183.657 157.187H182.538L181.232 155.065L179.925 157.187H178.802L180.704 154.323L178.859 151.532H179.972ZM186.996 151.532V152.275H183.939V151.532H186.996ZM184.973 150.158H185.94V155.786C185.94 155.978 185.97 156.122 186.029 156.22C186.088 156.318 186.165 156.382 186.259 156.413C186.353 156.445 186.454 156.46 186.562 156.46C186.642 156.46 186.726 156.453 186.813 156.44C186.904 156.422 186.971 156.408 187.017 156.398L187.022 157.187C186.945 157.211 186.844 157.234 186.719 157.255C186.597 157.279 186.449 157.291 186.275 157.291C186.038 157.291 185.82 157.244 185.621 157.15C185.423 157.056 185.264 156.899 185.146 156.68C185.031 156.457 184.973 156.157 184.973 155.781V150.158Z" fill="white"/>
</g>
<defs>
<filter id="filter0_d_1456_2973" x="22.1696" y="55.7876" width="208.19" height="80.2692" filterUnits="userSpaceOnUse" color-interpolation-filters="sRGB">
<feFlood flood-opacity="0" result="BackgroundImageFix"/>
<feColorMatrix in="SourceAlpha" type="matrix" values="0 0 0 0 0 0 0 0 0 0 0 0 0 0 0 0 0 0 127 0" result="hardAlpha"/>
<feOffset dx="0.764469" dy="1.52894"/>
<feGaussianBlur stdDeviation="1.52894"/>
<feColorMatrix type="matrix" values="0 0 0 0 0.439216 0 0 0 0 0.439216 0 0 0 0 0.54902 0 0 0 0.15 0"/>
<feBlend mode="normal" in2="BackgroundImageFix" result="effect1_dropShadow_1456_2973"/>
<feBlend mode="normal" in="SourceGraphic" in2="effect1_dropShadow_1456_2973" result="shape"/>
</filter>
<filter id="filter1_d_1456_2973" x="236.476" y="55.7876" width="208.19" height="80.2692" filterUnits="userSpaceOnUse" color-interpolation-filters="sRGB">
<feFlood flood-opacity="0" result="BackgroundImageFix"/>
<feColorMatrix in="SourceAlpha" type="matrix" values="0 0 0 0 0 0 0 0 0 0 0 0 0 0 0 0 0 0 127 0" result="hardAlpha"/>
<feOffset dx="0.764469" dy="1.52894"/>
<feGaussianBlur stdDeviation="1.52894"/>
<feColorMatrix type="matrix" values="0 0 0 0 0.439216 0 0 0 0 0.439216 0 0 0 0 0.54902 0 0 0 0.15 0"/>
<feBlend mode="normal" in2="BackgroundImageFix" result="effect1_dropShadow_1456_2973"/>
<feBlend mode="normal" in="SourceGraphic" in2="effect1_dropShadow_1456_2973" result="shape"/>
</filter>
<filter id="filter2_d_1456_2973" x="450.782" y="55.7876" width="208.19" height="80.2692" filterUnits="userSpaceOnUse" color-interpolation-filters="sRGB">
<feFlood flood-opacity="0" result="BackgroundImageFix"/>
<feColorMatrix in="SourceAlpha" type="matrix" values="0 0 0 0 0 0 0 0 0 0 0 0 0 0 0 0 0 0 127 0" result="hardAlpha"/>
<feOffset dx="0.764469" dy="1.52894"/>
<feGaussianBlur stdDeviation="1.52894"/>
<feColorMatrix type="matrix" values="0 0 0 0 0.439216 0 0 0 0 0.439216 0 0 0 0 0.54902 0 0 0 0.15 0"/>
<feBlend mode="normal" in2="BackgroundImageFix" result="effect1_dropShadow_1456_2973"/>
<feBlend mode="normal" in="SourceGraphic" in2="effect1_dropShadow_1456_2973" result="shape"/>
</filter>
<filter id="filter3_d_1456_2973" x="571.823" y="36.3741" width="78.4051" height="44.5209" filterUnits="userSpaceOnUse" color-interpolation-filters="sRGB">
<feFlood flood-opacity="0" result="BackgroundImageFix"/>
<feColorMatrix in="SourceAlpha" type="matrix" values="0 0 0 0 0 0 0 0 0 0 0 0 0 0 0 0 0 0 127 0" result="hardAlpha"/>
<feOffset dy="1.52894"/>
<feGaussianBlur stdDeviation="3.05787"/>
<feColorMatrix type="matrix" values="0 0 0 0 0 0 0 0 0 0 0 0 0 0 0 0 0 0 0.15 0"/>
<feBlend mode="normal" in2="BackgroundImageFix" result="effect1_dropShadow_1456_2973"/>
<feBlend mode="normal" in="SourceGraphic" in2="effect1_dropShadow_1456_2973" result="shape"/>
</filter>
<filter id="filter4_d_1456_2973" x="120.69" y="131.426" width="78.4051" height="44.5209" filterUnits="userSpaceOnUse" color-interpolation-filters="sRGB">
<feFlood flood-opacity="0" result="BackgroundImageFix"/>
<feColorMatrix in="SourceAlpha" type="matrix" values="0 0 0 0 0 0 0 0 0 0 0 0 0 0 0 0 0 0 127 0" result="hardAlpha"/>
<feOffset dy="1.52894"/>
<feGaussianBlur stdDeviation="3.05787"/>
<feColorMatrix type="matrix" values="0 0 0 0 0 0 0 0 0 0 0 0 0 0 0 0 0 0 0.15 0"/>
<feBlend mode="normal" in2="BackgroundImageFix" result="effect1_dropShadow_1456_2973"/>
<feBlend mode="normal" in="SourceGraphic" in2="effect1_dropShadow_1456_2973" result="shape"/>
</filter>
<clipPath id="clip0_1456_2973">
<rect width="12.7143" height="12.7143" fill="white" transform="translate(461.659 25.7547)"/>
</clipPath>
<clipPath id="clip1_1456_2973">
<rect width="12.7143" height="12.7143" fill="white" transform="translate(496.623 25.7547)"/>
</clipPath>
<clipPath id="clip2_1456_2973">
<rect width="12.7143" height="12.7143" fill="white" transform="translate(535.561 25.7547)"/>
</clipPath>
<clipPath id="clip3_1456_2973">
<rect width="12.7143" height="12.7143" fill="white" transform="translate(570.525 25.7547)"/>
</clipPath>
<clipPath id="clip4_1456_2973">
<rect width="12.7143" height="12.7143" fill="white" transform="translate(605.489 25.7547)"/>
</clipPath>
<clipPath id="clip5_1456_2973">
<rect width="12.7143" height="12.7143" fill="white" transform="translate(644.427 25.7547)"/>
</clipPath>
<clipPath id="clip6_1456_2973">
<rect width="64.9798" height="3.05787" fill="white" transform="matrix(1 0 0 -1 578.535 44.0188)"/>
</clipPath>
<clipPath id="clip7_1456_2973">
<rect width="6.9464" height="6.9464" fill="white" transform="translate(124.643 123.614)"/>
</clipPath>
<clipPath id="clip8_1456_2973">
<rect width="6.9464" height="6.9464" fill="white" transform="translate(156.751 123.614)"/>
</clipPath>
<clipPath id="clip9_1456_2973">
<rect width="6.9464" height="6.9464" fill="white" transform="translate(188.858 123.614)"/>
</clipPath>
<clipPath id="clip10_1456_2973">
<rect width="6.9464" height="6.9464" fill="white" transform="translate(220.966 123.614)"/>
</clipPath>
<clipPath id="clip11_1456_2973">
<rect width="8.33568" height="8.33568" fill="white" transform="translate(221.165 52.1624)"/>
</clipPath>
<clipPath id="clip12_1456_2973">
<rect width="64.9798" height="3.05787" fill="white" transform="matrix(1 0 0 -1 127.403 139.071)"/>
</clipPath>
</defs>
</svg>
