<?xml version="1.0" encoding="iso-8859-1"?>
<!-- Generator: Adobe Illustrator 19.0.0, SVG Export Plug-In . SVG Version: 6.00 Build 0)  -->
<svg xmlns="http://www.w3.org/2000/svg" xmlns:xlink="http://www.w3.org/1999/xlink" version="1.1" id="Layer_1" x="0px" y="0px" viewBox="0 0 459.22 459.22" style="enable-background:new 0 0 459.22 459.22;" xml:space="preserve" width="24px" height="24px">
<g>
	<g>
		<g>
			<path d="M419.533,0H148.718C129.9,0,114.59,15.31,114.59,34.128v54.869h31.153V34.128c0-1.64,1.335-2.975,2.974-2.975h270.814     c1.64,0,2.974,1.335,2.974,2.975v55.01H314.584c34.101,2.116,61.2,30.516,61.2,65.14c0,7.858,0,176.016,0,184.792h43.749     c18.818,0,34.128-15.31,34.128-34.128V34.128C453.66,15.31,438.35,0,419.533,0z" fill="#FFFFFF"/>
			<circle cx="174.455" cy="56.654" r="18.796" fill="#FFFFFF"/>
			<path d="M310.501,120.15c-12.404,0-256.952,0-270.814,0c-18.796,0-34.128,15.28-34.128,34.128v270.814     c0,18.818,15.31,34.128,34.128,34.128h270.814c18.82,0,34.129-15.311,34.129-34.128V154.278     C344.631,135.49,329.363,120.15,310.501,120.15z M36.712,209.288v-55.01c0-1.64,1.335-2.974,2.974-2.974h270.814     c1.641,0,2.975,1.335,2.975,2.974v55.01H36.712z" fill="#FFFFFF"/>
			<circle cx="65.424" cy="176.804" r="18.796" fill="#FFFFFF"/>
		</g>
	</g>
</g>
<g>
</g>
<g>
</g>
<g>
</g>
<g>
</g>
<g>
</g>
<g>
</g>
<g>
</g>
<g>
</g>
<g>
</g>
<g>
</g>
<g>
</g>
<g>
</g>
<g>
</g>
<g>
</g>
<g>
</g>
</svg>
