<svg width="788" height="430" viewBox="9557 -1626 788 430" xmlns="http://www.w3.org/2000/svg" xmlns:xlink="http://www.w3.org/1999/xlink"><defs><filter x="-50%" y="-50%" width="200%" height="200%" filterUnits="objectBoundingBox" id="a"><feOffset dy="3" in="SourceAlpha" result="shadowOffsetOuter1"/><feGaussianBlur stdDeviation="1" in="shadowOffsetOuter1" result="shadowBlurOuter1"/><feColorMatrix values="0 0 0 0 0 0 0 0 0 0 0 0 0 0 0 0 0 0 0.0788609601 0" in="shadowBlurOuter1" result="shadowMatrixOuter1"/><feMerge><feMergeNode in="shadowMatrixOuter1"/><feMergeNode in="SourceGraphic"/></feMerge></filter><filter x="-50%" y="-50%" width="200%" height="200%" filterUnits="objectBoundingBox" id="b"><feOffset dy="3" in="SourceAlpha" result="shadowOffsetOuter1"/><feGaussianBlur stdDeviation="1" in="shadowOffsetOuter1" result="shadowBlurOuter1"/><feColorMatrix values="0 0 0 0 0 0 0 0 0 0 0 0 0 0 0 0 0 0 0.0788609601 0" in="shadowBlurOuter1" result="shadowMatrixOuter1"/><feMerge><feMergeNode in="shadowMatrixOuter1"/><feMergeNode in="SourceGraphic"/></feMerge></filter><filter x="-50%" y="-50%" width="200%" height="200%" filterUnits="objectBoundingBox" id="c"><feOffset dy="3" in="SourceAlpha" result="shadowOffsetOuter1"/><feGaussianBlur stdDeviation="1" in="shadowOffsetOuter1" result="shadowBlurOuter1"/><feColorMatrix values="0 0 0 0 0 0 0 0 0 0 0 0 0 0 0 0 0 0 0.0788609601 0" in="shadowBlurOuter1" result="shadowMatrixOuter1"/><feMerge><feMergeNode in="shadowMatrixOuter1"/><feMergeNode in="SourceGraphic"/></feMerge></filter><filter x="-50%" y="-50%" width="200%" height="200%" filterUnits="objectBoundingBox" id="d"><feOffset dy="3" in="SourceAlpha" result="shadowOffsetOuter1"/><feGaussianBlur stdDeviation="1" in="shadowOffsetOuter1" result="shadowBlurOuter1"/><feColorMatrix values="0 0 0 0 0 0 0 0 0 0 0 0 0 0 0 0 0 0 0.0788609601 0" in="shadowBlurOuter1" result="shadowMatrixOuter1"/><feMerge><feMergeNode in="shadowMatrixOuter1"/><feMergeNode in="SourceGraphic"/></feMerge></filter><filter x="-50%" y="-50%" width="200%" height="200%" filterUnits="objectBoundingBox" id="e"><feOffset dy="3" in="SourceAlpha" result="shadowOffsetOuter1"/><feGaussianBlur stdDeviation="1" in="shadowOffsetOuter1" result="shadowBlurOuter1"/><feColorMatrix values="0 0 0 0 0 0 0 0 0 0 0 0 0 0 0 0 0 0 0.0788609601 0" in="shadowBlurOuter1" result="shadowMatrixOuter1"/><feMerge><feMergeNode in="shadowMatrixOuter1"/><feMergeNode in="SourceGraphic"/></feMerge></filter><filter x="-50%" y="-50%" width="200%" height="200%" filterUnits="objectBoundingBox" id="f"><feOffset dy="3" in="SourceAlpha" result="shadowOffsetOuter1"/><feGaussianBlur stdDeviation="1" in="shadowOffsetOuter1" result="shadowBlurOuter1"/><feColorMatrix values="0 0 0 0 0 0 0 0 0 0 0 0 0 0 0 0 0 0 0.0788609601 0" in="shadowBlurOuter1" result="shadowMatrixOuter1"/><feMerge><feMergeNode in="shadowMatrixOuter1"/><feMergeNode in="SourceGraphic"/></feMerge></filter><filter x="-50%" y="-50%" width="200%" height="200%" filterUnits="objectBoundingBox" id="g"><feOffset dy="4" in="SourceAlpha" result="shadowOffsetOuter1"/><feGaussianBlur stdDeviation="3" in="shadowOffsetOuter1" result="shadowBlurOuter1"/><feColorMatrix values="0 0 0 0 0 0 0 0 0 0 0 0 0 0 0 0 0 0 0.159844882 0" in="shadowBlurOuter1" result="shadowMatrixOuter1"/><feMerge><feMergeNode in="shadowMatrixOuter1"/><feMergeNode in="SourceGraphic"/></feMerge></filter><filter x="-50%" y="-50%" width="200%" height="200%" filterUnits="objectBoundingBox" id="h"><feOffset dy="3" in="SourceAlpha" result="shadowOffsetOuter1"/><feGaussianBlur stdDeviation="1" in="shadowOffsetOuter1" result="shadowBlurOuter1"/><feColorMatrix values="0 0 0 0 0 0 0 0 0 0 0 0 0 0 0 0 0 0 0.0788609601 0" in="shadowBlurOuter1" result="shadowMatrixOuter1"/><feMerge><feMergeNode in="shadowMatrixOuter1"/><feMergeNode in="SourceGraphic"/></feMerge></filter><filter x="-50%" y="-50%" width="200%" height="200%" filterUnits="objectBoundingBox" id="i"><feOffset dy="3" in="SourceAlpha" result="shadowOffsetOuter1"/><feGaussianBlur stdDeviation="1" in="shadowOffsetOuter1" result="shadowBlurOuter1"/><feColorMatrix values="0 0 0 0 0 0 0 0 0 0 0 0 0 0 0 0 0 0 0.0788609601 0" in="shadowBlurOuter1" result="shadowMatrixOuter1"/><feMerge><feMergeNode in="shadowMatrixOuter1"/><feMergeNode in="SourceGraphic"/></feMerge></filter><filter x="-50%" y="-50%" width="200%" height="200%" filterUnits="objectBoundingBox" id="j"><feOffset dy="3" in="SourceAlpha" result="shadowOffsetOuter1"/><feGaussianBlur stdDeviation="1" in="shadowOffsetOuter1" result="shadowBlurOuter1"/><feColorMatrix values="0 0 0 0 0 0 0 0 0 0 0 0 0 0 0 0 0 0 0.0788609601 0" in="shadowBlurOuter1" result="shadowMatrixOuter1"/><feMerge><feMergeNode in="shadowMatrixOuter1"/><feMergeNode in="SourceGraphic"/></feMerge></filter><rect id="l" x=".5" y=".8" width="77.3" height="49.6" rx="5"/><filter x="-50%" y="-50%" width="200%" height="200%" filterUnits="objectBoundingBox" id="k"><feOffset dy="3" in="SourceAlpha" result="shadowOffsetOuter1"/><feGaussianBlur stdDeviation="1" in="shadowOffsetOuter1" result="shadowBlurOuter1"/><feColorMatrix values="0 0 0 0 0 0 0 0 0 0 0 0 0 0 0 0 0 0 0.08 0" in="shadowBlurOuter1"/></filter><filter x="-50%" y="-50%" width="200%" height="200%" filterUnits="objectBoundingBox" id="m"><feOffset dy="3" in="SourceAlpha" result="shadowOffsetOuter1"/><feGaussianBlur stdDeviation="1" in="shadowOffsetOuter1" result="shadowBlurOuter1"/><feColorMatrix values="0 0 0 0 0 0 0 0 0 0 0 0 0 0 0 0 0 0 0.0788609601 0" in="shadowBlurOuter1" result="shadowMatrixOuter1"/><feMerge><feMergeNode in="shadowMatrixOuter1"/><feMergeNode in="SourceGraphic"/></feMerge></filter><filter x="-50%" y="-50%" width="200%" height="200%" filterUnits="objectBoundingBox" id="n"><feOffset dy="3" in="SourceAlpha" result="shadowOffsetOuter1"/><feGaussianBlur stdDeviation="1" in="shadowOffsetOuter1" result="shadowBlurOuter1"/><feColorMatrix values="0 0 0 0 0 0 0 0 0 0 0 0 0 0 0 0 0 0 0.0788609601 0" in="shadowBlurOuter1" result="shadowMatrixOuter1"/><feMerge><feMergeNode in="shadowMatrixOuter1"/><feMergeNode in="SourceGraphic"/></feMerge></filter><filter x="-50%" y="-50%" width="200%" height="200%" filterUnits="objectBoundingBox" id="o"><feOffset dy="3" in="SourceAlpha" result="shadowOffsetOuter1"/><feGaussianBlur stdDeviation="1" in="shadowOffsetOuter1" result="shadowBlurOuter1"/><feColorMatrix values="0 0 0 0 0 0 0 0 0 0 0 0 0 0 0 0 0 0 0.0788609601 0" in="shadowBlurOuter1" result="shadowMatrixOuter1"/><feMerge><feMergeNode in="shadowMatrixOuter1"/><feMergeNode in="SourceGraphic"/></feMerge></filter><filter x="-50%" y="-50%" width="200%" height="200%" filterUnits="objectBoundingBox" id="p"><feOffset dy="3" in="SourceAlpha" result="shadowOffsetOuter1"/><feGaussianBlur stdDeviation="1" in="shadowOffsetOuter1" result="shadowBlurOuter1"/><feColorMatrix values="0 0 0 0 0 0 0 0 0 0 0 0 0 0 0 0 0 0 0.0788609601 0" in="shadowBlurOuter1" result="shadowMatrixOuter1"/><feMerge><feMergeNode in="shadowMatrixOuter1"/><feMergeNode in="SourceGraphic"/></feMerge></filter></defs><g fill="none" fill-rule="evenodd"><g transform="translate(10126 -1623)"><g filter="url(#a)" transform="translate(55.456 371.245)"><rect fill="#F4F4F4" width="77.3" height="49.6" rx="5"/><rect fill="#D07075" x="6.8" y="7.8" width="12" height="11.4" rx="5"/><path fill="#A19F9F" d="M25.6 10.3h41.8v6.2H25.6z"/><path fill="#CFCCCC" d="M9.4 26.4h60V31h-60zm0 8.8h60V40h-60z"/></g><g filter="url(#b)" transform="translate(138.075 315.857)"><rect fill="#F4F4F4" width="77.3" height="49.6" rx="5"/><rect fill="#82976C" x="6.8" y="7.8" width="12" height="10.9" rx="5.4"/><path fill="#A19F9F" d="M25.6 10.3h41.8v6.2H25.6z"/><path fill="#CFCCCC" d="M9.4 26.4h60V31h-60zm0 8.8h60V40h-60z"/></g><g filter="url(#c)" transform="translate(55.456 316.857)"><rect fill="#F4F4F4" width="77.3" height="49.6" rx="5"/><rect fill="#68B7A5" transform="rotate(45 13.587 11.89)" x="9.4" y="7.8" width="8.4" height="8.3" rx="3"/><path fill="#A19F9F" d="M25.6 10.3h41.8v6.2H25.6z"/><path fill="#CFCCCC" d="M9.4 26.4h60V31h-60zm0 8.8h60V40h-60z"/></g><g transform="translate(125.87 289.57)"><rect fill="#FE4A77" width="65.7" height="18.8" rx="4"/><path d="M10.3 10.7c0-.3 0-.5-.3-.7l-1-.4c-.4 0-.8-.3-1-.5-.8 0-1-.6-1-1s.3-1 .7-1.2c.3-.3 1-.5 1.5-.5.4 0 .8.2 1 .3l1 .7.2 1h-1c0-.4-.2-.6-.4-.8-.2-.2-.5-.3-.8-.3-.4 0-.6 0-.8.2-.2 0-.3.3-.3.6 0 .2.3.4.5.5l1 .5c.5 0 1 .3 1 .4l.8.6.2.8c0 .5-.2 1-.6 1.2-.5.3-1 .5-1.7.5-.4 0-.8 0-1.2-.3-.2 0-.5-.3-.7-.6-.2-.3-.3-.6-.3-1h1c0 .3 0 .6.3.8.2.2.5.3 1 .3.3 0 .6 0 .7-.3.2 0 .3-.3.3-.5zm8.2 1.5h-1V9.5h-2.8v2.7h-1v-6h1v2.5h2.7V6.2h1v6zM26 9.4c0 .5-.2 1-.4 1.5l-1 1-1.2.2s-1 0-1.3-.4l-.7-1c-.2-.5-.3-1-.3-1.6V9c0-.5 0-1 .2-1.5.2-.4.5-.8 1-1 .3-.3.7-.4 1.2-.4s1 .3 1.3.6c.4.2.7.5 1 1L26 9v.5zM25 9c0-.6-.3-1-.5-1.5-.3-.3-.6-.5-1-.5-.5 0-1 .2-1.2.5-.2.4-.3 1-.3 1.5v.4c0 .6 0 1 .3 1.5l1 .3c.6 0 1 0 1.2-.5.2-.5.4-1 .4-1.6V9zm4.4 1v2.2h-1v-6h2.2c.7 0 1.2.2 1.6.5.4.4.6.8.6 1.4 0 .8-.2 1.3-.5 1.6-.4.3-1 .5-1.7.5h-1.2zm0-1h2.2l.2-1c0-.2 0-.5-.3-.7-.2-.2-.5-.3-.8-.3h-1.3v2zm6.8 1v2.2h-1v-6h2.3c.6 0 1.2.2 1.5.5.4.4.6.8.6 1.4 0 .8-.2 1.3-.5 1.6-.2.3-1 .5-1.5.5h-1.2zm0-1h2c.3-.3.4-.6.4-1 0-.2 0-.5-.3-.7-.2-.2-.5-.3-.8-.3h-1.3v2zm7 3.2H42v-6h1v6zm7.3 0h-1L46.8 8v4h-1V6h1l2.7 4.3v-4h1v6zm7.3-.8l-1 .7c-.3.3-.8.4-1.2.4-.6 0-1 0-1.4-.4l-1-1-.2-1.5V9c0-1 .2-1.6.6-2 .5-.6 1-1 2-1 .5 0 1 .3 1.5.6s.8.8 1 1.4h-1c-.3-.7-.7-1-1.4-1-.5 0-.8 0-1 .5-.3.3-.5.8-.5 1.4v.3c0 .7.3 1.2.5 1.5.3.3.7.5 1.2.5s1-.2 1-.4v-1h-1V9H58v2.4z" fill="#FFF"/></g><rect fill="#9C5C6F" x="56.4" y="294.3" width="61" height="11.3" rx="4"/><g filter="url(#d)" transform="rotate(-5 2532.53 -479.84)"><rect fill="#F4F4F4" width="77.3" height="49.6" rx="5"/><rect fill="#82976C" x="6.8" y="7.8" width="12" height="10.9" rx="5"/><path fill="#A19F9F" d="M25.6 10.3h41.8v6.2H25.6z"/><path fill="#CFCCCC" d="M9.4 26.4h60V31h-60zm0 8.8h60V40h-60z"/></g><g transform="rotate(-8 1301.762 -529.334)"><rect fill="#ED5B3F" width="51.6" height="18.8" rx="4"/><path d="M12.2 6.7h-2v5h-1v-5H7.5v-1h4.8v1zm7 2.3c0 .6-.2 1-.4 1.5-.3.5-.5.8-1 1-.3.3-.7.4-1.2.4s-1-.3-1.3-.5l-1-1L14 9v-.4c0-.6.3-1 .5-1.6.2-.3.5-.7 1-1 .2 0 .7-.3 1.2-.3s1 .2 1.3.4l.7 1c.3.6.4 1 .4 1.7V9zM18 8.7c0-.7 0-1.2-.4-1.6-.2 0-.6-.3-1-.3-.5 0-.8.2-1 .5-.3.5-.5 1-.5 1.6V9c0 .6.3 1.2.6 1.5.3.4.6.6 1 .6.5 0 1 0 1-.4.4-.3.5-.8.5-1.5V9zm5.4 1h-2.2V9h2.2v.7zm2.3 2v-6h1.8c.5 0 1 .2 1.4.5.2.2.5.5.7 1 .3.4.4 1 .4 1.5V9c0 .5 0 1-.3 1.5-.2.4-.5.7-1 1-.4.2-.8.3-1.4.3h-1.7zm1-5V11h.7c.6 0 1-.2 1.3-.5.3-.4.4-1 .4-1.5v-.3c0-.7 0-1.2-.2-1.5-.3-.4-.7-.5-1.2-.5h-.8zM37.4 9c0 .6 0 1-.3 1.5 0 .5-.3.8-.7 1-.3.3-.8.4-1.3.4-.6 0-1-.3-1.4-.5l-1-1-.2-1.6v-.4c0-.6 0-1 .3-1.6.2-.3.5-.7 1-1 .3 0 .7-.3 1.2-.3.3 0 .7.2 1 .4l1 1 .3 1.7V9zm-1-.3c0-.7-.2-1.2-.4-1.6-.3 0-.6-.3-1-.3-.5 0-1 .2-1 .5-.4.5-.5 1-.5 1.6V9c0 .6 0 1.2.4 1.5 0 .4.4.6 1 .6.3 0 .6 0 1-.4 0-.3.3-.8.3-1.5V9zm6.6 1.6c0-.3 0-.5-.3-.6l-1-.5c-.5 0-1-.3-1-.4-.7-.4-1-.8-1-1.4 0-.5.2-1 .6-1.2.4-.3 1-.5 1.6-.5.2 0 .6 0 1 .3.2 0 .5.3.7.6l.2 1h-1c0-.3 0-.6-.4-.8l-.8-.2c-.5 0-.7 0-1 .2l-.2.6c0 .2 0 .4.3.6l1 .4c.5 0 1 .3 1 .5.4 0 .6 0 .7.4.2.2.2.5.2.8 0 .5 0 1-.6 1.2-.4.3-1 .4-1.6.4-.5 0-1-.2-1.3-.3-.4-.2-.6-.4-.8-.7-.3-.3-.4-.6-.4-1h1c0 .4 0 .6.3.8.2.2.5.3 1 .3h.7l.3-.8z" fill="#FFF"/></g><g filter="url(#e)" transform="rotate(21 -298.7 105.762)"><rect fill="#F4F4F4" width="77.3" height="49.6" rx="5"/><rect fill="#3F52FF" x="6.8" y="7.8" width="12" height="10.9" rx="1"/><path fill="#A19F9F" d="M25.6 10.3h41.8v6.2H25.6z"/><path fill="#CFCCCC" d="M9.4 26.4h60V31h-60zm0 8.8h60V40h-60z"/></g><g filter="url(#f)" transform="rotate(-9 544.77 -407.01)"><rect fill="#F4F4F4" width="77.3" height="49.6" rx="5"/><rect fill="#AB3CFD" x="6.8" y="7.8" width="12" height="10.9" rx="1"/><path fill="#A19F9F" d="M25.6 10.3h41.8v6.2H25.6z"/><path fill="#CFCCCC" d="M9.4 26.4h60V31h-60zm0 8.8h60V40h-60z"/></g><g filter="url(#g)" transform="rotate(-17 89.867 -63.874)"><rect fill="#F4F4F4" width="77.3" height="52.9" rx="5"/><rect fill="#CB677E" x="6.8" y="8.3" width="12" height="11.6" rx="5.8"/><path fill="#A19F9F" d="M25.6 11h41.8v6.6H25.6z"/><path fill="#CFCCCC" d="M9.4 28h60v5h-60zm0 9.5h60v5h-60z"/></g></g><g transform="translate(9559 -1616)"><g filter="url(#h)" transform="translate(82.62 337.02)"><rect fill="#F4F4F4" width="77.3" height="49.6" rx="5"/><rect fill="#949494" x="6.8" y="7.8" width="12" height="10.9" rx="5.4"/><path fill="#A19F9F" d="M25.6 10.3h41.8v6.2H25.6z"/><path fill="#CFCCCC" d="M9.4 26.4h60V31h-60zm0 8.8h60V40h-60z"/></g><g filter="url(#i)" transform="translate(0 337.02)"><rect fill="#F4F4F4" width="77.3" height="49.6" rx="5"/><rect fill="#EE5A37" transform="rotate(45 13.587 11.89)" x="9.4" y="7.8" width="8.4" height="8.3" rx="3"/><path fill="#A19F9F" d="M25.6 10.3h41.8v6.2H25.6z"/><path fill="#CFCCCC" d="M9.4 26.4h60V31h-60zm0 8.8h60V40h-60z"/></g><g transform="translate(70.414 310.735)"><rect fill="#AA46F9" width="44.1" height="18.8" rx="4"/><path d="M12.8 10.2l1-4.5h1l-1.4 6h-1l-1-4.4-1.3 4.4H9l-1.3-6h1l1 4.5 1-4.5h1l1 4.5zm9-1.3c0 .4 0 1-.3 1.3-.3.5-.5.8-1 1-.3.3-.7.4-1.2.4s-1 0-1.3-.3l-1-1-.2-1.6v-.4c0-.6 0-1 .3-1.6l1-1c.4-.2 1-.4 1.4-.4s1 .2 1.3.4c.3.2.6.6.8 1 .3.5.4 1 .4 1.6V9zm-1-.5c0-.7-.2-1.2-.5-1.6-.2-.4-.6-.6-1-.6-.5 0-.8.2-1 .5-.3.3-.5 1-.5 1.4V9c0 .5 0 1 .4 1.4.3.4.6.6 1 .6.5 0 1-.2 1-.6.4-.3.5-.8.5-1.5v-.5zm5.6.8h-1v2.3H24v-6h2c.8 0 1.3.2 1.7.5.3.4.5 1 .5 1.4 0 .4 0 .8-.3 1L27 9l1.4 2.6h-1L26 9.3zm-1-.8h1c.3 0 .6 0 .7-.3.4-.2.5-.4.5-.7 0-.3 0-.6-.2-.8l-.8-.2h-1v2zm7.2.5l-.7 1v1.7h-1v-6h1v2.8l.4-.7 1.8-2h1.2l-2.2 2.6 2.4 3.3h-1.3L32.6 9z" fill="#FFF"/></g><rect fill="#9C5C6F" x=".9" y="315.4" width="61" height="11.3" rx="4"/><g filter="url(#j)" transform="translate(166.177 234.694)"><rect fill="#F4F4F4" width="77.3" height="49.6" rx="5"/><rect fill="#B3915F" transform="rotate(45 14.37 13.7)" x="9.9" y="9.3" width="8.9" height="8.8" rx="1"/><path fill="#A19F9F" d="M25.6 10.3h41.8v6.2H25.6z"/><path fill="#CFCCCC" d="M9.4 26.4h60V31h-60zm0 8.8h60V40h-60z"/></g><g transform="translate(82.62 233.755)"><use fill="#000" filter="url(#k)" xlink:href="#l"/><use fill="#F4F4F4" xlink:href="#l"/><rect fill="#68B7A6" x="7.3" y="8.6" width="12" height="11.4" rx="5.7"/><path fill="#A19F9F" d="M26 11h42v6.3H26z"/><path fill="#CFCCCC" d="M10 27.2h60V32H10zm0 8.8h60v4.7H10z"/></g><g filter="url(#m)" transform="translate(0 234.694)"><rect fill="#F4F4F4" width="77.3" height="49.6" rx="5"/><rect fill="#797F91" x="6.8" y="7.8" width="12" height="10.9" rx="5.4"/><path fill="#A19F9F" d="M25.6 10.3h41.8v6.2H25.6z"/><path fill="#CFCCCC" d="M9.4 26.4h60V31h-60zm0 8.8h60V40h-60z"/></g><g transform="translate(69.475 208.408)"><rect fill="#4359FD" width="60.1" height="18.8" rx="4"/><path d="M10.3 10h-1v2H8V6h2.2c.7 0 1.3.2 1.6.5.4.3.6.7.6 1.3 0 .4 0 .8-.3 1 0 .3-.3.5-.6.6l1.4 2.6h-1.2l-1.3-2zm-1-1h1c.3 0 .6 0 .8-.2.4-.2.5-.4.5-.7 0-.2 0-.4-.3-.6 0-.2-.4-.3-.7-.3h-1v2zm9 .5h-2.5v2h3v.7h-4v-6h4V7h-3v1.7h2.5v.8zm6 1.3H22l-.5 1.4h-1l2.2-6h1l2.2 6h-1.3l-.4-1.4zm-2-.8H24l-.8-2.5-1 2.5zm5.7 2.2v-6h1.8c.5 0 1 0 1.4.4.4.2.7.5 1 1 .2.4.3 1 .3 1.5v.5c0 .5 0 1-.3 1.5l-1 1-1.5.2H28zM29 7v4.4h.7c.6 0 1-.2 1.3-.5.3-.6.4-1 .5-1.7V9c0-.6-.2-1-.5-1.4-.3-.4-.7-.6-1.2-.6H29zm7 5.2h-1v-6h1v6zm7.5 0h-1L39.8 8v4h-1V6h1l2.7 4.3v-4h1v6zm7.3-.8l-1 .7c-.3.3-.8.4-1.3.4s-1 0-1.3-.4l-1-1-.2-1.5V9c0-1 .2-1.6.6-2 .5-.6 1-1 1.8-1 .7 0 1.2.3 1.6.6.4.3.7.8.7 1.4h-1c0-.7-.5-1-1.2-1-.5 0-1 0-1 .5-.3.3-.5.8-.5 1.4v.3c0 .7.2 1.2.4 1.5.3.3.7.5 1.2.5s1-.2 1-.4v-1h-1V9h2.2v2.4z" fill="#FFF"/></g><rect fill="#9C5C6F" x=".9" y="212.2" width="61" height="11.3" rx="4"/><g transform="rotate(-10 936.558 -421.226)"><rect fill="#9D5B6F" width="69.5" height="18.8" rx="4"/><path d="M9.2 10v2.2h-1v-6h2.2c.7 0 1.2.2 1.6.5.4.4.6.8.6 1.4 0 .8-.2 1.3-.6 1.6-.4.3-1 .5-1.6.5H9.2zm0-1h2.2l.2-1c0-.2 0-.5-.3-.7-.2-.2-.5-.3-1-.3h-1v2zm9.2.5H16v2h3v.7h-4v-6h3.8V7H16v1.7h2.4v.8zm5 .4H22v2h-1V6h2c.7 0 1.3.2 1.6.5.4.3.6.7.6 1.3 0 .4 0 .8-.3 1 0 .3-.5.5-.8.6l1.3 2.6h-1l-1.3-2zM22 9h1c.4 0 .7 0 1-.2l.2-.7c0-.2 0-.4-.3-.6 0-.2-.5-.3-.8-.3h-1v2zm8.7 1.7c0-.3-.2-.5-.3-.7l-1-.4c-.5 0-1-.3-1.2-.5-.5 0-.8-.6-.8-1s.2-1 .6-1.3c.4-.3 1-.5 1.5-.5.4 0 .8.2 1 .3.5.2.7.4 1 .7l.2 1h-1c0-.4-.2-.6-.4-.8-.2-.2-.4-.3-.8-.3-.3 0-.6 0-.8.3-.2 0-.3.3-.3.6 0 0 0 .3.3.4l1 .5c.5 0 1 .2 1.2.3l.5.6.2.7c0 .5-.2 1-.6 1.2-.3.2-1 .4-1.5.4-.4 0-.8 0-1.2-.3-.3 0-.6-.2-.8-.5-.2-.3-.3-.6-.3-1h1c0 .3 0 .6.4.8 0 .2.4.3.8.3s.7 0 1-.3v-.5zm8-1.3c0 .5 0 1-.2 1.5l-1 1-1.2.2s-1 0-1.3-.4l-1-1-.2-1.6V9c0-.5.2-1 .4-1.5.2-.4.5-.8 1-1 .3-.3.7-.4 1.2-.4s1 .3 1.3.6c.3.2.6.5.8 1 .2.4.3 1 .3 1.5v.5zM38 9c0-.6 0-1-.3-1.5-.3-.3-.6-.5-1-.5-.5 0-1 .2-1.2.5-.2.4-.3 1-.3 1.5v.4c0 .6 0 1 .3 1.5l1 .3c.6 0 1 0 1.2-.5.2-.5.4-1 .4-1.6V9zm8.3 3.2h-1L42.6 8v4h-1V6h1l2.7 4.3v-4h1v6zm6-1.4H50l-.3 1.4h-1l2.2-6h1l2 6h-1l-.5-1.4zm-2-.8H52l-.7-2.5-.8 2.5zm6.8 1.4h3v.8h-4v-6h1v5.2z" fill="#FFF"/></g><g filter="url(#n)" transform="rotate(8 -627.653 1152.76)"><rect fill="#F4F4F4" width="77.3" height="49.6" rx="5"/><rect fill="#A9656D" x="6.8" y="7.8" width="12" height="10.9" rx="2"/><path fill="#A19F9F" d="M25.6 10.3h41.8v6.2H25.6z"/><path fill="#CFCCCC" d="M9.4 26.4h60V31h-60zm0 8.8h60V40h-60z"/></g><g filter="url(#o)" transform="rotate(-13 411.292 -195.975)"><rect fill="#F4F4F4" width="77.3" height="49.6" rx="5"/><rect fill="#F8557B" x="6.8" y="7.8" width="12" height="11.4" rx="5.7"/><path fill="#A19F9F" d="M25.6 10.3h41.8v6.2H25.6z"/><path fill="#CFCCCC" d="M9.4 26.4h60V31h-60zm0 8.8h60V40h-60z"/></g><g filter="url(#p)" transform="rotate(19 56.956 347.036)"><rect fill="#F4F4F4" width="77.3" height="49.6" rx="5"/><rect fill="#6478AD" x="6.8" y="7.8" width="12" height="10.9" rx="5.4"/><path fill="#A19F9F" d="M25.6 10.3h41.8v6.2H25.6z"/><path fill="#CFCCCC" d="M9.4 26.4h60V31h-60zm0 8.8h60V40h-60z"/></g></g></g></svg>