<svg width="239" height="258" viewBox="0 0 239 258" fill="none" xmlns="http://www.w3.org/2000/svg">
<g filter="url(#filter0_d_2176_19568)">
<path d="M126.32 15.0813L221.409 98.1697C223.756 100.22 223.676 103.895 221.241 105.841L125.33 182.484C123.961 183.579 122.118 183.876 120.474 183.268L62.3054 161.754C61.41 161.423 60.6282 160.843 60.0522 160.081L18.3335 104.931C16.7169 102.794 17.0724 99.7626 19.1395 98.0575L119.849 14.9893C121.737 13.4314 124.477 13.4703 126.32 15.0813Z" fill="#CF3A61" stroke="#CF3A61"/>
<g filter="url(#filter1_d_2176_19568)">
<rect x="39.3086" y="41.3657" width="168.668" height="142.882" rx="4" fill="#FAFAFA"/>
</g>
<rect x="62.3359" y="92.9482" width="122.618" height="3.45511" rx="1.72756" fill="#DDDDF5"/>
<rect x="62.3359" y="105.269" width="122.618" height="3.45511" rx="1.72756" fill="#DDDDF5"/>
<rect x="62.3359" y="117.589" width="122.618" height="3.45511" rx="1.72756" fill="#DDDDF5"/>
<rect x="62.3359" y="129.91" width="122.618" height="3.45511" rx="1.72756" fill="#DDDDF5"/>
<rect x="62.3359" y="142.231" width="122.618" height="3.45511" rx="1.72756" fill="#DDDDF5"/>
<path d="M223.312 231.866V102.395C223.312 98.3803 218.82 96.0027 215.501 98.2599L118.213 164.413C116.457 165.607 114.138 165.562 112.43 164.299L23.8704 98.8407C20.57 96.4012 15.8984 98.7574 15.8984 102.862V234.866C15.8984 237.627 18.137 239.866 20.8984 239.866H215.312C219.73 239.866 223.312 236.284 223.312 231.866Z" fill="#F65077" stroke="#CF3A61"/>
<path d="M113.234 164.802L220.312 237.871" stroke="#CF3A61" stroke-linecap="round"/>
<g clip-path="url(#clip0_2176_19568)">
<path d="M126.146 66.0623L126.141 72.3294C126.141 73.5461 125.151 74.5411 123.928 74.5411C122.711 74.5411 121.716 73.5461 121.72 72.3294L121.725 66.0576L126.146 66.0623Z" fill="white"/>
<path d="M129.978 61.389C130.398 61.8087 130.629 62.3652 130.629 62.9499C130.629 64.1666 129.638 65.1521 128.416 65.1521L123.009 65.1474C123.612 64.5532 123.99 63.761 124.334 63.0348C124.82 62.0068 125.245 61.1202 126.142 60.8279C126.311 60.7713 126.5 60.743 126.698 60.7336C126.722 60.7336 126.746 60.7288 126.769 60.7241L128.416 60.7288C129.006 60.7383 129.558 60.9693 129.978 61.389ZM129.204 62.9546C129.204 62.4548 128.798 62.0492 128.298 62.0492C127.798 62.0492 127.392 62.4548 127.392 62.9546C127.392 63.4545 127.798 63.86 128.298 63.86C128.793 63.8553 129.199 63.4545 129.204 62.9546Z" fill="white"/>
<path d="M119.106 60.7241L124.693 60.7336C124.183 61.2664 123.853 61.9691 123.523 62.6575C123.041 63.6761 122.584 64.6381 121.621 65.0107C121.442 65.0814 121.253 65.1238 121.06 65.1521H119.106C118.516 65.1521 117.964 64.9211 117.544 64.5014C117.125 64.0817 116.893 63.5252 116.893 62.9358C116.898 61.7238 117.889 60.7241 119.106 60.7241Z" fill="white"/>
<path d="M132.271 58.4561C134.573 60.7574 135.838 63.8226 135.833 67.0811C135.828 70.3349 134.559 73.3953 132.257 75.6919C129.954 77.9884 126.896 79.2569 123.645 79.2569C123.641 79.2569 123.641 79.2569 123.636 79.2569C120.38 79.2569 117.318 77.9837 115.02 75.6777C112.722 73.3718 111.453 70.316 111.453 67.0622C111.458 63.8084 112.727 60.7479 115.03 58.4467C117.332 56.1502 120.39 54.877 123.645 54.877C123.65 54.877 123.65 54.877 123.655 54.877C126.906 54.877 129.968 56.1549 132.271 58.4561ZM130.624 62.9549C130.624 62.3654 130.393 61.8137 129.973 61.394C129.553 60.9743 129.001 60.7432 128.411 60.7432L126.764 60.7385C126.741 60.7432 126.717 60.7479 126.694 60.7479C126.5 60.7527 126.311 60.7857 126.137 60.8423C125.24 61.1299 124.816 62.0212 124.33 63.0492C123.985 63.7754 123.608 64.5676 123.004 65.1618L128.411 65.1665C129.633 65.1571 130.624 64.1715 130.624 62.9549ZM126.146 72.3296L126.151 66.0625L121.73 66.0578L121.725 72.3296C121.725 73.5462 122.716 74.5412 123.933 74.5412C125.151 74.5412 126.141 73.5462 126.146 72.3296ZM124.693 60.7338L119.106 60.7244C117.889 60.7244 116.898 61.7241 116.893 62.9407C116.893 63.5302 117.125 64.0866 117.545 64.5063C117.965 64.926 118.517 65.1524 119.106 65.1571H121.06C121.253 65.1335 121.447 65.0863 121.621 65.0156C122.584 64.6384 123.042 63.6764 123.523 62.6625C123.853 61.9693 124.183 61.2667 124.693 60.7338Z" fill="#F65077"/>
<path d="M128.298 62.0493C128.798 62.0493 129.204 62.4549 129.204 62.9547C129.204 63.4546 128.798 63.8601 128.298 63.8601C127.798 63.8601 127.392 63.4546 127.392 62.9547C127.392 62.4501 127.798 62.0493 128.298 62.0493Z" fill="#F65077"/>
</g>
</g>
<defs>
<filter id="filter0_d_2176_19568" x="0.398438" y="0.34668" width="238.414" height="257.019" filterUnits="userSpaceOnUse" color-interpolation-filters="sRGB">
<feFlood flood-opacity="0" result="BackgroundImageFix"/>
<feColorMatrix in="SourceAlpha" type="matrix" values="0 0 0 0 0 0 0 0 0 0 0 0 0 0 0 0 0 0 127 0" result="hardAlpha"/>
<feOffset dy="2"/>
<feGaussianBlur stdDeviation="7.5"/>
<feColorMatrix type="matrix" values="0 0 0 0 0.439216 0 0 0 0 0.439216 0 0 0 0 0.54902 0 0 0 0.25 0"/>
<feBlend mode="normal" in2="BackgroundImageFix" result="effect1_dropShadow_2176_19568"/>
<feBlend mode="normal" in="SourceGraphic" in2="effect1_dropShadow_2176_19568" result="shape"/>
</filter>
<filter id="filter1_d_2176_19568" x="36.3086" y="39.3657" width="176.668" height="150.882" filterUnits="userSpaceOnUse" color-interpolation-filters="sRGB">
<feFlood flood-opacity="0" result="BackgroundImageFix"/>
<feColorMatrix in="SourceAlpha" type="matrix" values="0 0 0 0 0 0 0 0 0 0 0 0 0 0 0 0 0 0 127 0" result="hardAlpha"/>
<feOffset dx="1" dy="2"/>
<feGaussianBlur stdDeviation="2"/>
<feColorMatrix type="matrix" values="0 0 0 0 0.439216 0 0 0 0 0.439216 0 0 0 0 0.54902 0 0 0 0.15 0"/>
<feBlend mode="normal" in2="BackgroundImageFix" result="effect1_dropShadow_2176_19568"/>
<feBlend mode="normal" in="SourceGraphic" in2="effect1_dropShadow_2176_19568" result="shape"/>
</filter>
<clipPath id="clip0_2176_19568">
<rect width="24.3799" height="24.3799" fill="white" transform="translate(111.453 54.877)"/>
</clipPath>
</defs>
</svg>
