<svg width="460" height="628" viewBox="0 0 460 628" fill="none" xmlns="http://www.w3.org/2000/svg">
<path fill-rule="evenodd" clip-rule="evenodd" d="M243.571 27.7178C301.429 31.4316 365.762 11.9599 413.049 45.5057C460.081 78.8698 456.965 148.571 484.978 198.973C516.296 255.323 586.355 294.143 587.065 358.607C587.778 423.368 532.656 474.073 488.53 521.478C445.68 567.511 399.844 626.235 336.964 627.289C273.458 628.353 239.613 547.811 179.726 526.654C125.024 507.329 53.5866 549.859 9.86085 511.731C-33.1119 474.259 -35.5878 403.956 -25.296 347.877C-16.1013 297.776 49.3664 275.691 62.2249 226.402C79.7115 159.373 12.808 73.977 59.5075 22.8124C101.739 -23.4571 181.054 23.7049 243.571 27.7178Z" stroke="#FFCFD5"/>
<path fill-rule="evenodd" clip-rule="evenodd" d="M403.105 412.81C373.815 462.845 362.338 529.073 311.135 556.271C260.21 583.322 199.324 549.251 141.711 551.659C77.2995 554.35 11.1616 599.53 -46.7615 571.228C-104.951 542.796 -125.519 470.779 -148.073 410.069C-169.973 351.117 -201.874 283.798 -174.591 227.135C-147.036 169.909 -59.8719 175.818 -14.0845 131.8C27.7381 91.5933 21.8003 8.66647 75.499 -13.2919C128.273 -34.8721 192.206 -5.52766 237.699 28.8414C278.342 59.547 268.69 127.962 306.962 161.576C359.01 207.29 465.351 185.837 490.109 250.534C512.499 309.041 434.753 358.747 403.105 412.81Z" stroke="#FFCFD5"/>
</svg>
